<?xml version="1.0" encoding="utf-8" standalone="no"?>
<!DOCTYPE svg PUBLIC "-//W3C//DTD SVG 1.1//EN"
  "http://www.w3.org/Graphics/SVG/1.1/DTD/svg11.dtd">
<svg xmlns:xlink="http://www.w3.org/1999/xlink" width="455.690603pt" height="471.518438pt" viewBox="0 0 455.690603 471.518438" xmlns="http://www.w3.org/2000/svg" version="1.1">
 <metadata>
  <rdf:RDF xmlns:dc="http://purl.org/dc/elements/1.1/" xmlns:cc="http://creativecommons.org/ns#" xmlns:rdf="http://www.w3.org/1999/02/22-rdf-syntax-ns#">
   <cc:Work>
    <dc:type rdf:resource="http://purl.org/dc/dcmitype/StillImage"/>
    <dc:date>2026-05-25T00:54:22.043974</dc:date>
    <dc:format>image/svg+xml</dc:format>
    <dc:creator>
     <cc:Agent>
      <dc:title>Matplotlib v3.10.9, https://matplotlib.org/</dc:title>
     </cc:Agent>
    </dc:creator>
   </cc:Work>
  </rdf:RDF>
 </metadata>
 <defs>
  <style type="text/css">*{stroke-linejoin: round; stroke-linecap: butt}</style>
 </defs>
 <g id="figure_1">
  <g id="patch_1">
   <path d="M 0 471.518438 
L 455.690603 471.518438 
L 455.690603 0 
L 0 0 
z
" style="fill: #ffffff"/>
  </g>
  <g id="axes_1">
   <g id="PathCollection_1">
    <defs>
     <path id="C0_0_173182dc14" d="M 0 1.581139 
C 0.419323 1.581139 0.821528 1.41454 1.118034 1.118034 
C 1.41454 0.821528 1.581139 0.419323 1.581139 -0 
C 1.581139 -0.419323 1.41454 -0.821528 1.118034 -1.118034 
C 0.821528 -1.41454 0.419323 -1.581139 0 -1.581139 
C -0.419323 -1.581139 -0.821528 -1.41454 -1.118034 -1.118034 
C -1.41454 -0.821528 -1.581139 -0.419323 -1.581139 0 
C -1.581139 0.419323 -1.41454 0.821528 -1.118034 1.118034 
C -0.821528 1.41454 -0.419323 1.581139 0 1.581139 
z
"/>
    </defs>
    <g clip-path="url(#pdd2f5e9f1e)">
     <use xlink:href="#C0_0_173182dc14" x="278.383166" y="82.215219" style="fill: #4a6fa5"/>
    </g>
    <g clip-path="url(#pdd2f5e9f1e)">
     <use xlink:href="#C0_0_173182dc14" x="339.386364" y="354.441073" style="fill: #4a6fa5"/>
    </g>
    <g clip-path="url(#pdd2f5e9f1e)">
     <use xlink:href="#C0_0_173182dc14" x="146.756301" y="91.799887" style="fill: #4a6fa5"/>
    </g>
    <g clip-path="url(#pdd2f5e9f1e)">
     <use xlink:href="#C0_0_173182dc14" x="27.29368" y="112.996442" style="fill: #4a6fa5"/>
    </g>
    <g clip-path="url(#pdd2f5e9f1e)">
     <use xlink:href="#C0_0_173182dc14" x="348.048789" y="256.113509" style="fill: #4a6fa5"/>
    </g>
    <g clip-path="url(#pdd2f5e9f1e)">
     <use xlink:href="#C0_0_173182dc14" x="147.917358" y="332.882608" style="fill: #4a6fa5"/>
    </g>
    <g clip-path="url(#pdd2f5e9f1e)">
     <use xlink:href="#C0_0_173182dc14" x="128.40688" y="265.37341" style="fill: #4a6fa5"/>
    </g>
    <g clip-path="url(#pdd2f5e9f1e)">
     <use xlink:href="#C0_0_173182dc14" x="229.550215" y="221.452694" style="fill: #4a6fa5"/>
    </g>
    <g clip-path="url(#pdd2f5e9f1e)">
     <use xlink:href="#C0_0_173182dc14" x="428.43194" y="124.56856" style="fill: #4a6fa5"/>
    </g>
    <g clip-path="url(#pdd2f5e9f1e)">
     <use xlink:href="#C0_0_173182dc14" x="277.201816" y="45.049323" style="fill: #4a6fa5"/>
    </g>
    <g clip-path="url(#pdd2f5e9f1e)">
     <use xlink:href="#C0_0_173182dc14" x="112.381001" y="380.770221" style="fill: #4a6fa5"/>
    </g>
    <g clip-path="url(#pdd2f5e9f1e)">
     <use xlink:href="#C0_0_173182dc14" x="273.296862" y="427.870512" style="fill: #4a6fa5"/>
    </g>
    <g clip-path="url(#pdd2f5e9f1e)">
     <use xlink:href="#C0_0_173182dc14" x="39.614604" y="237.092779" style="fill: #4a6fa5"/>
    </g>
    <g clip-path="url(#pdd2f5e9f1e)">
     <use xlink:href="#C0_0_173182dc14" x="214.018005" y="74.131984" style="fill: #4a6fa5"/>
    </g>
    <g clip-path="url(#pdd2f5e9f1e)">
     <use xlink:href="#C0_0_173182dc14" x="280.056524" y="237.405177" style="fill: #4a6fa5"/>
    </g>
    <g clip-path="url(#pdd2f5e9f1e)">
     <use xlink:href="#C0_0_173182dc14" x="226.441189" y="345.404344" style="fill: #4a6fa5"/>
    </g>
    <g clip-path="url(#pdd2f5e9f1e)">
     <use xlink:href="#C0_0_173182dc14" x="29.938425" y="367.7302" style="fill: #4a6fa5"/>
    </g>
    <g clip-path="url(#pdd2f5e9f1e)">
     <use xlink:href="#C0_0_173182dc14" x="305.498804" y="364.406574" style="fill: #4a6fa5"/>
    </g>
    <g clip-path="url(#pdd2f5e9f1e)">
     <use xlink:href="#C0_0_173182dc14" x="174.857683" y="444.158437" style="fill: #4a6fa5"/>
    </g>
    <g clip-path="url(#pdd2f5e9f1e)">
     <use xlink:href="#C0_0_173182dc14" x="361.408101" y="383.099898" style="fill: #4a6fa5"/>
    </g>
    <g clip-path="url(#pdd2f5e9f1e)">
     <use xlink:href="#C0_0_173182dc14" x="133.563612" y="89.053873" style="fill: #4a6fa5"/>
    </g>
    <g clip-path="url(#pdd2f5e9f1e)">
     <use xlink:href="#C0_0_173182dc14" x="231.673941" y="102.495665" style="fill: #4a6fa5"/>
    </g>
    <g clip-path="url(#pdd2f5e9f1e)">
     <use xlink:href="#C0_0_173182dc14" x="284.30633" y="145.184188" style="fill: #4a6fa5"/>
    </g>
    <g clip-path="url(#pdd2f5e9f1e)">
     <use xlink:href="#C0_0_173182dc14" x="62.225058" y="226.457035" style="fill: #4a6fa5"/>
    </g>
    <g clip-path="url(#pdd2f5e9f1e)">
     <use xlink:href="#C0_0_173182dc14" x="230.856228" y="92.696793" style="fill: #4a6fa5"/>
    </g>
    <g clip-path="url(#pdd2f5e9f1e)">
     <use xlink:href="#C0_0_173182dc14" x="171.506643" y="203.350373" style="fill: #4a6fa5"/>
    </g>
    <g clip-path="url(#pdd2f5e9f1e)">
     <use xlink:href="#C0_0_173182dc14" x="49.163222" y="288.643835" style="fill: #4a6fa5"/>
    </g>
    <g clip-path="url(#pdd2f5e9f1e)">
     <use xlink:href="#C0_0_173182dc14" x="156.020826" y="384.826146" style="fill: #4a6fa5"/>
    </g>
    <g clip-path="url(#pdd2f5e9f1e)">
     <use xlink:href="#C0_0_173182dc14" x="355.854414" y="291.959785" style="fill: #4a6fa5"/>
    </g>
    <g clip-path="url(#pdd2f5e9f1e)">
     <use xlink:href="#C0_0_173182dc14" x="421.645643" y="206.669055" style="fill: #4a6fa5"/>
    </g>
    <g clip-path="url(#pdd2f5e9f1e)">
     <use xlink:href="#C0_0_173182dc14" x="270.265401" y="187.222562" style="fill: #4a6fa5"/>
    </g>
    <g clip-path="url(#pdd2f5e9f1e)">
     <use xlink:href="#C0_0_173182dc14" x="299.186679" y="384.587833" style="fill: #4a6fa5"/>
    </g>
    <g clip-path="url(#pdd2f5e9f1e)">
     <use xlink:href="#C0_0_173182dc14" x="203.529085" y="348.62523" style="fill: #4a6fa5"/>
    </g>
    <g clip-path="url(#pdd2f5e9f1e)">
     <use xlink:href="#C0_0_173182dc14" x="188.210387" y="406.496907" style="fill: #4a6fa5"/>
    </g>
    <g clip-path="url(#pdd2f5e9f1e)">
     <use xlink:href="#C0_0_173182dc14" x="417.222084" y="358.574309" style="fill: #4a6fa5"/>
    </g>
    <g clip-path="url(#pdd2f5e9f1e)">
     <use xlink:href="#C0_0_173182dc14" x="297.288781" y="323.972781" style="fill: #4a6fa5"/>
    </g>
    <g clip-path="url(#pdd2f5e9f1e)">
     <use xlink:href="#C0_0_173182dc14" x="379.244105" y="177.411932" style="fill: #4a6fa5"/>
    </g>
    <g clip-path="url(#pdd2f5e9f1e)">
     <use xlink:href="#C0_0_173182dc14" x="78.477515" y="103.33661" style="fill: #4a6fa5"/>
    </g>
    <g clip-path="url(#pdd2f5e9f1e)">
     <use xlink:href="#C0_0_173182dc14" x="407.953582" y="79.499879" style="fill: #4a6fa5"/>
    </g>
    <g clip-path="url(#pdd2f5e9f1e)">
     <use xlink:href="#C0_0_173182dc14" x="255.950551" y="386.7462" style="fill: #4a6fa5"/>
    </g>
    <g clip-path="url(#pdd2f5e9f1e)">
     <use xlink:href="#C0_0_173182dc14" x="103.126546" y="69.78212" style="fill: #4a6fa5"/>
    </g>
    <g clip-path="url(#pdd2f5e9f1e)">
     <use xlink:href="#C0_0_173182dc14" x="248.904889" y="372.530421" style="fill: #4a6fa5"/>
    </g>
    <g clip-path="url(#pdd2f5e9f1e)">
     <use xlink:href="#C0_0_173182dc14" x="383.28689" y="185.774301" style="fill: #4a6fa5"/>
    </g>
    <g clip-path="url(#pdd2f5e9f1e)">
     <use xlink:href="#C0_0_173182dc14" x="255.940475" y="293.239208" style="fill: #4a6fa5"/>
    </g>
    <g clip-path="url(#pdd2f5e9f1e)">
     <use xlink:href="#C0_0_173182dc14" x="191.63626" y="348.655511" style="fill: #4a6fa5"/>
    </g>
    <g clip-path="url(#pdd2f5e9f1e)">
     <use xlink:href="#C0_0_173182dc14" x="40.577515" y="90.720165" style="fill: #4a6fa5"/>
    </g>
    <g clip-path="url(#pdd2f5e9f1e)">
     <use xlink:href="#C0_0_173182dc14" x="214.635446" y="223.827417" style="fill: #4a6fa5"/>
    </g>
    <g clip-path="url(#pdd2f5e9f1e)">
     <use xlink:href="#C0_0_173182dc14" x="155.667164" y="141.313931" style="fill: #4a6fa5"/>
    </g>
    <g clip-path="url(#pdd2f5e9f1e)">
     <use xlink:href="#C0_0_173182dc14" x="35.367838" y="294.901131" style="fill: #4a6fa5"/>
    </g>
    <g clip-path="url(#pdd2f5e9f1e)">
     <use xlink:href="#C0_0_173182dc14" x="37.455459" y="395.888302" style="fill: #4a6fa5"/>
    </g>
    <g clip-path="url(#pdd2f5e9f1e)">
     <use xlink:href="#C0_0_173182dc14" x="416.946695" y="179.216224" style="fill: #4a6fa5"/>
    </g>
    <g clip-path="url(#pdd2f5e9f1e)">
     <use xlink:href="#C0_0_173182dc14" x="198.630194" y="233.507175" style="fill: #4a6fa5"/>
    </g>
    <g clip-path="url(#pdd2f5e9f1e)">
     <use xlink:href="#C0_0_173182dc14" x="378.73052" y="306.233477" style="fill: #4a6fa5"/>
    </g>
    <g clip-path="url(#pdd2f5e9f1e)">
     <use xlink:href="#C0_0_173182dc14" x="264.284078" y="168.714711" style="fill: #4a6fa5"/>
    </g>
    <g clip-path="url(#pdd2f5e9f1e)">
     <use xlink:href="#C0_0_173182dc14" x="169.136729" y="235.387468" style="fill: #4a6fa5"/>
    </g>
    <g clip-path="url(#pdd2f5e9f1e)">
     <use xlink:href="#C0_0_173182dc14" x="335.157869" y="77.368061" style="fill: #4a6fa5"/>
    </g>
    <g clip-path="url(#pdd2f5e9f1e)">
     <use xlink:href="#C0_0_173182dc14" x="86.35516" y="67.54855" style="fill: #4a6fa5"/>
    </g>
    <g clip-path="url(#pdd2f5e9f1e)">
     <use xlink:href="#C0_0_173182dc14" x="27.258664" y="140.644479" style="fill: #4a6fa5"/>
    </g>
    <g clip-path="url(#pdd2f5e9f1e)">
     <use xlink:href="#C0_0_173182dc14" x="353.500301" y="390.268858" style="fill: #4a6fa5"/>
    </g>
    <g clip-path="url(#pdd2f5e9f1e)">
     <use xlink:href="#C0_0_173182dc14" x="194.856097" y="115.41572" style="fill: #4a6fa5"/>
    </g>
    <g clip-path="url(#pdd2f5e9f1e)">
     <use xlink:href="#C0_0_173182dc14" x="30.94191" y="191.084985" style="fill: #4a6fa5"/>
    </g>
    <g clip-path="url(#pdd2f5e9f1e)">
     <use xlink:href="#C0_0_173182dc14" x="346.409871" y="237.856477" style="fill: #4a6fa5"/>
    </g>
    <g clip-path="url(#pdd2f5e9f1e)">
     <use xlink:href="#C0_0_173182dc14" x="319.19799" y="353.94836" style="fill: #4a6fa5"/>
    </g>
    <g clip-path="url(#pdd2f5e9f1e)">
     <use xlink:href="#C0_0_173182dc14" x="105.580464" y="298.570603" style="fill: #4a6fa5"/>
    </g>
    <g clip-path="url(#pdd2f5e9f1e)">
     <use xlink:href="#C0_0_173182dc14" x="97.837044" y="305.48374" style="fill: #4a6fa5"/>
    </g>
    <g clip-path="url(#pdd2f5e9f1e)">
     <use xlink:href="#C0_0_173182dc14" x="409.240116" y="213.417506" style="fill: #4a6fa5"/>
    </g>
    <g clip-path="url(#pdd2f5e9f1e)">
     <use xlink:href="#C0_0_173182dc14" x="162.920274" y="335.678159" style="fill: #4a6fa5"/>
    </g>
    <g clip-path="url(#pdd2f5e9f1e)">
     <use xlink:href="#C0_0_173182dc14" x="410.826233" y="265.615696" style="fill: #4a6fa5"/>
    </g>
    <g clip-path="url(#pdd2f5e9f1e)">
     <use xlink:href="#C0_0_173182dc14" x="422.312779" y="236.83601" style="fill: #4a6fa5"/>
    </g>
    <g clip-path="url(#pdd2f5e9f1e)">
     <use xlink:href="#C0_0_173182dc14" x="236.282014" y="82.487959" style="fill: #4a6fa5"/>
    </g>
    <g clip-path="url(#pdd2f5e9f1e)">
     <use xlink:href="#C0_0_173182dc14" x="326.051369" y="210.452159" style="fill: #4a6fa5"/>
    </g>
    <g clip-path="url(#pdd2f5e9f1e)">
     <use xlink:href="#C0_0_173182dc14" x="197.993895" y="89.922514" style="fill: #4a6fa5"/>
    </g>
    <g clip-path="url(#pdd2f5e9f1e)">
     <use xlink:href="#C0_0_173182dc14" x="191.916126" y="71.866778" style="fill: #4a6fa5"/>
    </g>
    <g clip-path="url(#pdd2f5e9f1e)">
     <use xlink:href="#C0_0_173182dc14" x="52.996914" y="271.482003" style="fill: #4a6fa5"/>
    </g>
    <g clip-path="url(#pdd2f5e9f1e)">
     <use xlink:href="#C0_0_173182dc14" x="235.613079" y="60.451788" style="fill: #4a6fa5"/>
    </g>
    <g clip-path="url(#pdd2f5e9f1e)">
     <use xlink:href="#C0_0_173182dc14" x="126.839028" y="119.149525" style="fill: #4a6fa5"/>
    </g>
    <g clip-path="url(#pdd2f5e9f1e)">
     <use xlink:href="#C0_0_173182dc14" x="299.195168" y="155.183951" style="fill: #4a6fa5"/>
    </g>
    <g clip-path="url(#pdd2f5e9f1e)">
     <use xlink:href="#C0_0_173182dc14" x="280.216912" y="52.097732" style="fill: #4a6fa5"/>
    </g>
    <g clip-path="url(#pdd2f5e9f1e)">
     <use xlink:href="#C0_0_173182dc14" x="159.928003" y="284.332112" style="fill: #4a6fa5"/>
    </g>
    <g clip-path="url(#pdd2f5e9f1e)">
     <use xlink:href="#C0_0_173182dc14" x="107.359072" y="425.131247" style="fill: #4a6fa5"/>
    </g>
    <g clip-path="url(#pdd2f5e9f1e)">
     <use xlink:href="#C0_0_173182dc14" x="111.408571" y="74.822011" style="fill: #4a6fa5"/>
    </g>
    <g clip-path="url(#pdd2f5e9f1e)">
     <use xlink:href="#C0_0_173182dc14" x="365.508093" y="400.136264" style="fill: #4a6fa5"/>
    </g>
    <g clip-path="url(#pdd2f5e9f1e)">
     <use xlink:href="#C0_0_173182dc14" x="269.748004" y="251.551526" style="fill: #4a6fa5"/>
    </g>
    <g clip-path="url(#pdd2f5e9f1e)">
     <use xlink:href="#C0_0_173182dc14" x="266.064016" y="178.602799" style="fill: #4a6fa5"/>
    </g>
    <g clip-path="url(#pdd2f5e9f1e)">
     <use xlink:href="#C0_0_173182dc14" x="149.38666" y="56.233686" style="fill: #4a6fa5"/>
    </g>
    <g clip-path="url(#pdd2f5e9f1e)">
     <use xlink:href="#C0_0_173182dc14" x="213.869745" y="191.231262" style="fill: #4a6fa5"/>
    </g>
    <g clip-path="url(#pdd2f5e9f1e)">
     <use xlink:href="#C0_0_173182dc14" x="282.487059" y="371.178663" style="fill: #4a6fa5"/>
    </g>
    <g clip-path="url(#pdd2f5e9f1e)">
     <use xlink:href="#C0_0_173182dc14" x="50.222047" y="278.968156" style="fill: #4a6fa5"/>
    </g>
    <g clip-path="url(#pdd2f5e9f1e)">
     <use xlink:href="#C0_0_173182dc14" x="334.66475" y="115.429692" style="fill: #4a6fa5"/>
    </g>
    <g clip-path="url(#pdd2f5e9f1e)">
     <use xlink:href="#C0_0_173182dc14" x="320.87501" y="399.812508" style="fill: #4a6fa5"/>
    </g>
    <g clip-path="url(#pdd2f5e9f1e)">
     <use xlink:href="#C0_0_173182dc14" x="395.155321" y="120.770942" style="fill: #4a6fa5"/>
    </g>
    <g clip-path="url(#pdd2f5e9f1e)">
     <use xlink:href="#C0_0_173182dc14" x="380.708253" y="233.683778" style="fill: #4a6fa5"/>
    </g>
    <g clip-path="url(#pdd2f5e9f1e)">
     <use xlink:href="#C0_0_173182dc14" x="396.079168" y="426.772614" style="fill: #4a6fa5"/>
    </g>
    <g clip-path="url(#pdd2f5e9f1e)">
     <use xlink:href="#C0_0_173182dc14" x="37.430562" y="437.481949" style="fill: #4a6fa5"/>
    </g>
    <g clip-path="url(#pdd2f5e9f1e)">
     <use xlink:href="#C0_0_173182dc14" x="127.555814" y="344.97703" style="fill: #4a6fa5"/>
    </g>
    <g clip-path="url(#pdd2f5e9f1e)">
     <use xlink:href="#C0_0_173182dc14" x="101.117214" y="215.96024" style="fill: #4a6fa5"/>
    </g>
    <g clip-path="url(#pdd2f5e9f1e)">
     <use xlink:href="#C0_0_173182dc14" x="40.953667" y="206.508567" style="fill: #4a6fa5"/>
    </g>
    <g clip-path="url(#pdd2f5e9f1e)">
     <use xlink:href="#C0_0_173182dc14" x="92.41086" y="171.068577" style="fill: #4a6fa5"/>
    </g>
    <g clip-path="url(#pdd2f5e9f1e)">
     <use xlink:href="#C0_0_173182dc14" x="33.698236" y="319.86103" style="fill: #4a6fa5"/>
    </g>
    <g clip-path="url(#pdd2f5e9f1e)">
     <use xlink:href="#C0_0_173182dc14" x="405.277172" y="227.570007" style="fill: #4a6fa5"/>
    </g>
    <g clip-path="url(#pdd2f5e9f1e)">
     <use xlink:href="#C0_0_173182dc14" x="353.929933" y="179.108731" style="fill: #4a6fa5"/>
    </g>
    <g clip-path="url(#pdd2f5e9f1e)">
     <use xlink:href="#C0_0_173182dc14" x="272.572222" y="368.195841" style="fill: #4a6fa5"/>
    </g>
    <g clip-path="url(#pdd2f5e9f1e)">
     <use xlink:href="#C0_0_173182dc14" x="257.844609" y="429.594426" style="fill: #4a6fa5"/>
    </g>
    <g clip-path="url(#pdd2f5e9f1e)">
     <use xlink:href="#C0_0_173182dc14" x="349.910186" y="56.752177" style="fill: #4a6fa5"/>
    </g>
    <g clip-path="url(#pdd2f5e9f1e)">
     <use xlink:href="#C0_0_173182dc14" x="371.114697" y="425.128983" style="fill: #4a6fa5"/>
    </g>
    <g clip-path="url(#pdd2f5e9f1e)">
     <use xlink:href="#C0_0_173182dc14" x="162.349908" y="316.849965" style="fill: #4a6fa5"/>
    </g>
    <g clip-path="url(#pdd2f5e9f1e)">
     <use xlink:href="#C0_0_173182dc14" x="70.821715" y="191.834461" style="fill: #4a6fa5"/>
    </g>
    <g clip-path="url(#pdd2f5e9f1e)">
     <use xlink:href="#C0_0_173182dc14" x="348.206268" y="318.584467" style="fill: #4a6fa5"/>
    </g>
    <g clip-path="url(#pdd2f5e9f1e)">
     <use xlink:href="#C0_0_173182dc14" x="374.67959" y="122.759818" style="fill: #4a6fa5"/>
    </g>
    <g clip-path="url(#pdd2f5e9f1e)">
     <use xlink:href="#C0_0_173182dc14" x="77.473743" y="135.021104" style="fill: #4a6fa5"/>
    </g>
    <g clip-path="url(#pdd2f5e9f1e)">
     <use xlink:href="#C0_0_173182dc14" x="382.705104" y="365.753169" style="fill: #4a6fa5"/>
    </g>
    <g clip-path="url(#pdd2f5e9f1e)">
     <use xlink:href="#C0_0_173182dc14" x="257.539343" y="186.91737" style="fill: #4a6fa5"/>
    </g>
    <g clip-path="url(#pdd2f5e9f1e)">
     <use xlink:href="#C0_0_173182dc14" x="271.998395" y="406.682609" style="fill: #4a6fa5"/>
    </g>
    <g clip-path="url(#pdd2f5e9f1e)">
     <use xlink:href="#C0_0_173182dc14" x="293.005438" y="189.670082" style="fill: #4a6fa5"/>
    </g>
    <g clip-path="url(#pdd2f5e9f1e)">
     <use xlink:href="#C0_0_173182dc14" x="358.911814" y="120.172974" style="fill: #4a6fa5"/>
    </g>
    <g clip-path="url(#pdd2f5e9f1e)">
     <use xlink:href="#C0_0_173182dc14" x="157.694618" y="153.174106" style="fill: #4a6fa5"/>
    </g>
    <g clip-path="url(#pdd2f5e9f1e)">
     <use xlink:href="#C0_0_173182dc14" x="376.487992" y="83.943367" style="fill: #4a6fa5"/>
    </g>
    <g clip-path="url(#pdd2f5e9f1e)">
     <use xlink:href="#C0_0_173182dc14" x="90.588413" y="434.854194" style="fill: #4a6fa5"/>
    </g>
    <g clip-path="url(#pdd2f5e9f1e)">
     <use xlink:href="#C0_0_173182dc14" x="288.798934" y="358.707084" style="fill: #4a6fa5"/>
    </g>
    <g clip-path="url(#pdd2f5e9f1e)">
     <use xlink:href="#C0_0_173182dc14" x="253.51617" y="62.936499" style="fill: #4a6fa5"/>
    </g>
    <g clip-path="url(#pdd2f5e9f1e)">
     <use xlink:href="#C0_0_173182dc14" x="178.820845" y="343.2737" style="fill: #4a6fa5"/>
    </g>
    <g clip-path="url(#pdd2f5e9f1e)">
     <use xlink:href="#C0_0_173182dc14" x="210.090224" y="179.425583" style="fill: #4a6fa5"/>
    </g>
    <g clip-path="url(#pdd2f5e9f1e)">
     <use xlink:href="#C0_0_173182dc14" x="66.115323" y="291.498548" style="fill: #4a6fa5"/>
    </g>
    <g clip-path="url(#pdd2f5e9f1e)">
     <use xlink:href="#C0_0_173182dc14" x="79.330389" y="177.318159" style="fill: #4a6fa5"/>
    </g>
    <g clip-path="url(#pdd2f5e9f1e)">
     <use xlink:href="#C0_0_173182dc14" x="361.612593" y="293.009946" style="fill: #4a6fa5"/>
    </g>
    <g clip-path="url(#pdd2f5e9f1e)">
     <use xlink:href="#C0_0_173182dc14" x="175.743884" y="227.114163" style="fill: #4a6fa5"/>
    </g>
    <g clip-path="url(#pdd2f5e9f1e)">
     <use xlink:href="#C0_0_173182dc14" x="112.279355" y="345.447013" style="fill: #4a6fa5"/>
    </g>
    <g clip-path="url(#pdd2f5e9f1e)">
     <use xlink:href="#C0_0_173182dc14" x="158.781921" y="260.370746" style="fill: #4a6fa5"/>
    </g>
    <g clip-path="url(#pdd2f5e9f1e)">
     <use xlink:href="#C0_0_173182dc14" x="58.188643" y="140.743876" style="fill: #4a6fa5"/>
    </g>
    <g clip-path="url(#pdd2f5e9f1e)">
     <use xlink:href="#C0_0_173182dc14" x="259.732277" y="324.266963" style="fill: #4a6fa5"/>
    </g>
    <g clip-path="url(#pdd2f5e9f1e)">
     <use xlink:href="#C0_0_173182dc14" x="56.574388" y="136.511123" style="fill: #4a6fa5"/>
    </g>
    <g clip-path="url(#pdd2f5e9f1e)">
     <use xlink:href="#C0_0_173182dc14" x="78.260049" y="391.709943" style="fill: #4a6fa5"/>
    </g>
    <g clip-path="url(#pdd2f5e9f1e)">
     <use xlink:href="#C0_0_173182dc14" x="78.100142" y="412.752281" style="fill: #4a6fa5"/>
    </g>
    <g clip-path="url(#pdd2f5e9f1e)">
     <use xlink:href="#C0_0_173182dc14" x="392.334856" y="336.601903" style="fill: #4a6fa5"/>
    </g>
    <g clip-path="url(#pdd2f5e9f1e)">
     <use xlink:href="#C0_0_173182dc14" x="149.285827" y="108.311169" style="fill: #4a6fa5"/>
    </g>
    <g clip-path="url(#pdd2f5e9f1e)">
     <use xlink:href="#C0_0_173182dc14" x="276.288017" y="369.860491" style="fill: #4a6fa5"/>
    </g>
    <g clip-path="url(#pdd2f5e9f1e)">
     <use xlink:href="#C0_0_173182dc14" x="201.301046" y="87.599459" style="fill: #4a6fa5"/>
    </g>
    <g clip-path="url(#pdd2f5e9f1e)">
     <use xlink:href="#C0_0_173182dc14" x="177.222503" y="157.697296" style="fill: #4a6fa5"/>
    </g>
    <g clip-path="url(#pdd2f5e9f1e)">
     <use xlink:href="#C0_0_173182dc14" x="64.376959" y="151.036245" style="fill: #4a6fa5"/>
    </g>
    <g clip-path="url(#pdd2f5e9f1e)">
     <use xlink:href="#C0_0_173182dc14" x="339.705511" y="111.157978" style="fill: #4a6fa5"/>
    </g>
    <g clip-path="url(#pdd2f5e9f1e)">
     <use xlink:href="#C0_0_173182dc14" x="298.27552" y="295.489522" style="fill: #4a6fa5"/>
    </g>
    <g clip-path="url(#pdd2f5e9f1e)">
     <use xlink:href="#C0_0_173182dc14" x="51.172633" y="235.518011" style="fill: #4a6fa5"/>
    </g>
    <g clip-path="url(#pdd2f5e9f1e)">
     <use xlink:href="#C0_0_173182dc14" x="332.003208" y="368.363743" style="fill: #4a6fa5"/>
    </g>
    <g clip-path="url(#pdd2f5e9f1e)">
     <use xlink:href="#C0_0_173182dc14" x="133.011842" y="228.492138" style="fill: #4a6fa5"/>
    </g>
    <g clip-path="url(#pdd2f5e9f1e)">
     <use xlink:href="#C0_0_173182dc14" x="328.305371" y="82.469241" style="fill: #4a6fa5"/>
    </g>
    <g clip-path="url(#pdd2f5e9f1e)">
     <use xlink:href="#C0_0_173182dc14" x="76.097872" y="371.024397" style="fill: #4a6fa5"/>
    </g>
    <g clip-path="url(#pdd2f5e9f1e)">
     <use xlink:href="#C0_0_173182dc14" x="349.048375" y="184.579307" style="fill: #4a6fa5"/>
    </g>
    <g clip-path="url(#pdd2f5e9f1e)">
     <use xlink:href="#C0_0_173182dc14" x="317.222497" y="41.885127" style="fill: #4a6fa5"/>
    </g>
    <g clip-path="url(#pdd2f5e9f1e)">
     <use xlink:href="#C0_0_173182dc14" x="405.616913" y="104.16675" style="fill: #4a6fa5"/>
    </g>
    <g clip-path="url(#pdd2f5e9f1e)">
     <use xlink:href="#C0_0_173182dc14" x="339.965697" y="285.651238" style="fill: #4a6fa5"/>
    </g>
    <g clip-path="url(#pdd2f5e9f1e)">
     <use xlink:href="#C0_0_173182dc14" x="284.918809" y="370.953331" style="fill: #4a6fa5"/>
    </g>
    <g clip-path="url(#pdd2f5e9f1e)">
     <use xlink:href="#C0_0_173182dc14" x="332.827396" y="138.735206" style="fill: #4a6fa5"/>
    </g>
    <g clip-path="url(#pdd2f5e9f1e)">
     <use xlink:href="#C0_0_173182dc14" x="317.353108" y="265.485735" style="fill: #4a6fa5"/>
    </g>
    <g clip-path="url(#pdd2f5e9f1e)">
     <use xlink:href="#C0_0_173182dc14" x="178.359323" y="275.624466" style="fill: #4a6fa5"/>
    </g>
    <g clip-path="url(#pdd2f5e9f1e)">
     <use xlink:href="#C0_0_173182dc14" x="38.666261" y="103.642134" style="fill: #4a6fa5"/>
    </g>
    <g clip-path="url(#pdd2f5e9f1e)">
     <use xlink:href="#C0_0_173182dc14" x="244.871526" y="288.689677" style="fill: #4a6fa5"/>
    </g>
    <g clip-path="url(#pdd2f5e9f1e)">
     <use xlink:href="#C0_0_173182dc14" x="247.163908" y="153.339026" style="fill: #4a6fa5"/>
    </g>
    <g clip-path="url(#pdd2f5e9f1e)">
     <use xlink:href="#C0_0_173182dc14" x="179.68825" y="109.183594" style="fill: #4a6fa5"/>
    </g>
    <g clip-path="url(#pdd2f5e9f1e)">
     <use xlink:href="#C0_0_173182dc14" x="397.629832" y="288.724653" style="fill: #4a6fa5"/>
    </g>
    <g clip-path="url(#pdd2f5e9f1e)">
     <use xlink:href="#C0_0_173182dc14" x="80.989235" y="137.648488" style="fill: #4a6fa5"/>
    </g>
    <g clip-path="url(#pdd2f5e9f1e)">
     <use xlink:href="#C0_0_173182dc14" x="427.398373" y="385.722044" style="fill: #4a6fa5"/>
    </g>
    <g clip-path="url(#pdd2f5e9f1e)">
     <use xlink:href="#C0_0_173182dc14" x="313.861385" y="111.337589" style="fill: #4a6fa5"/>
    </g>
    <g clip-path="url(#pdd2f5e9f1e)">
     <use xlink:href="#C0_0_173182dc14" x="398.078918" y="395.690085" style="fill: #4a6fa5"/>
    </g>
    <g clip-path="url(#pdd2f5e9f1e)">
     <use xlink:href="#C0_0_173182dc14" x="62.352382" y="45.490295" style="fill: #4a6fa5"/>
    </g>
    <g clip-path="url(#pdd2f5e9f1e)">
     <use xlink:href="#C0_0_173182dc14" x="72.458089" y="374.047473" style="fill: #4a6fa5"/>
    </g>
    <g clip-path="url(#pdd2f5e9f1e)">
     <use xlink:href="#C0_0_173182dc14" x="258.070727" y="264.888622" style="fill: #4a6fa5"/>
    </g>
    <g clip-path="url(#pdd2f5e9f1e)">
     <use xlink:href="#C0_0_173182dc14" x="329.140119" y="368.477556" style="fill: #4a6fa5"/>
    </g>
    <g clip-path="url(#pdd2f5e9f1e)">
     <use xlink:href="#C0_0_173182dc14" x="395.589947" y="357.686825" style="fill: #4a6fa5"/>
    </g>
    <g clip-path="url(#pdd2f5e9f1e)">
     <use xlink:href="#C0_0_173182dc14" x="336.722993" y="418.285373" style="fill: #4a6fa5"/>
    </g>
    <g clip-path="url(#pdd2f5e9f1e)">
     <use xlink:href="#C0_0_173182dc14" x="216.93329" y="432.481973" style="fill: #4a6fa5"/>
    </g>
    <g clip-path="url(#pdd2f5e9f1e)">
     <use xlink:href="#C0_0_173182dc14" x="152.283574" y="319.18838" style="fill: #4a6fa5"/>
    </g>
    <g clip-path="url(#pdd2f5e9f1e)">
     <use xlink:href="#C0_0_173182dc14" x="316.726519" y="261.346299" style="fill: #4a6fa5"/>
    </g>
    <g clip-path="url(#pdd2f5e9f1e)">
     <use xlink:href="#C0_0_173182dc14" x="48.15969" y="42.456109" style="fill: #4a6fa5"/>
    </g>
    <g clip-path="url(#pdd2f5e9f1e)">
     <use xlink:href="#C0_0_173182dc14" x="385.167504" y="74.473818" style="fill: #4a6fa5"/>
    </g>
    <g clip-path="url(#pdd2f5e9f1e)">
     <use xlink:href="#C0_0_173182dc14" x="125.047007" y="286.019452" style="fill: #4a6fa5"/>
    </g>
    <g clip-path="url(#pdd2f5e9f1e)">
     <use xlink:href="#C0_0_173182dc14" x="117.189792" y="395.072329" style="fill: #4a6fa5"/>
    </g>
    <g clip-path="url(#pdd2f5e9f1e)">
     <use xlink:href="#C0_0_173182dc14" x="38.53853" y="241.772576" style="fill: #4a6fa5"/>
    </g>
    <g clip-path="url(#pdd2f5e9f1e)">
     <use xlink:href="#C0_0_173182dc14" x="75.041443" y="374.251312" style="fill: #4a6fa5"/>
    </g>
    <g clip-path="url(#pdd2f5e9f1e)">
     <use xlink:href="#C0_0_173182dc14" x="373.734282" y="249.507311" style="fill: #4a6fa5"/>
    </g>
    <g clip-path="url(#pdd2f5e9f1e)">
     <use xlink:href="#C0_0_173182dc14" x="99.577933" y="174.313035" style="fill: #4a6fa5"/>
    </g>
    <g clip-path="url(#pdd2f5e9f1e)">
     <use xlink:href="#C0_0_173182dc14" x="132.861006" y="232.212052" style="fill: #4a6fa5"/>
    </g>
    <g clip-path="url(#pdd2f5e9f1e)">
     <use xlink:href="#C0_0_173182dc14" x="139.783249" y="236.577351" style="fill: #4a6fa5"/>
    </g>
    <g clip-path="url(#pdd2f5e9f1e)">
     <use xlink:href="#C0_0_173182dc14" x="279.77593" y="228.456475" style="fill: #4a6fa5"/>
    </g>
    <g clip-path="url(#pdd2f5e9f1e)">
     <use xlink:href="#C0_0_173182dc14" x="185.417591" y="125.317222" style="fill: #4a6fa5"/>
    </g>
    <g clip-path="url(#pdd2f5e9f1e)">
     <use xlink:href="#C0_0_173182dc14" x="378.985016" y="373.008932" style="fill: #4a6fa5"/>
    </g>
    <g clip-path="url(#pdd2f5e9f1e)">
     <use xlink:href="#C0_0_173182dc14" x="80.378584" y="399.817901" style="fill: #4a6fa5"/>
    </g>
    <g clip-path="url(#pdd2f5e9f1e)">
     <use xlink:href="#C0_0_173182dc14" x="421.989506" y="64.238158" style="fill: #4a6fa5"/>
    </g>
    <g clip-path="url(#pdd2f5e9f1e)">
     <use xlink:href="#C0_0_173182dc14" x="118.60263" y="52.767407" style="fill: #4a6fa5"/>
    </g>
    <g clip-path="url(#pdd2f5e9f1e)">
     <use xlink:href="#C0_0_173182dc14" x="109.346429" y="240.500755" style="fill: #4a6fa5"/>
    </g>
    <g clip-path="url(#pdd2f5e9f1e)">
     <use xlink:href="#C0_0_173182dc14" x="226.648439" y="75.028" style="fill: #4a6fa5"/>
    </g>
    <g clip-path="url(#pdd2f5e9f1e)">
     <use xlink:href="#C0_0_173182dc14" x="41.578735" y="317.92443" style="fill: #4a6fa5"/>
    </g>
    <g clip-path="url(#pdd2f5e9f1e)">
     <use xlink:href="#C0_0_173182dc14" x="268.206894" y="418.773636" style="fill: #4a6fa5"/>
    </g>
    <g clip-path="url(#pdd2f5e9f1e)">
     <use xlink:href="#C0_0_173182dc14" x="120.985958" y="257.276736" style="fill: #4a6fa5"/>
    </g>
    <g clip-path="url(#pdd2f5e9f1e)">
     <use xlink:href="#C0_0_173182dc14" x="381.990643" y="137.411011" style="fill: #4a6fa5"/>
    </g>
    <g clip-path="url(#pdd2f5e9f1e)">
     <use xlink:href="#C0_0_173182dc14" x="360.97576" y="137.366349" style="fill: #4a6fa5"/>
    </g>
    <g clip-path="url(#pdd2f5e9f1e)">
     <use xlink:href="#C0_0_173182dc14" x="311.854185" y="101.465472" style="fill: #4a6fa5"/>
    </g>
    <g clip-path="url(#pdd2f5e9f1e)">
     <use xlink:href="#C0_0_173182dc14" x="301.222863" y="147.650355" style="fill: #4a6fa5"/>
    </g>
    <g clip-path="url(#pdd2f5e9f1e)">
     <use xlink:href="#C0_0_173182dc14" x="147.355118" y="377.760904" style="fill: #4a6fa5"/>
    </g>
    <g clip-path="url(#pdd2f5e9f1e)">
     <use xlink:href="#C0_0_173182dc14" x="331.624475" y="378.491461" style="fill: #4a6fa5"/>
    </g>
    <g clip-path="url(#pdd2f5e9f1e)">
     <use xlink:href="#C0_0_173182dc14" x="397.626796" y="203.974716" style="fill: #4a6fa5"/>
    </g>
    <g clip-path="url(#pdd2f5e9f1e)">
     <use xlink:href="#C0_0_173182dc14" x="158.612523" y="66.242623" style="fill: #4a6fa5"/>
    </g>
    <g clip-path="url(#pdd2f5e9f1e)">
     <use xlink:href="#C0_0_173182dc14" x="88.00308" y="237.263924" style="fill: #4a6fa5"/>
    </g>
    <g clip-path="url(#pdd2f5e9f1e)">
     <use xlink:href="#C0_0_173182dc14" x="62.248743" y="54.582173" style="fill: #4a6fa5"/>
    </g>
    <g clip-path="url(#pdd2f5e9f1e)">
     <use xlink:href="#C0_0_173182dc14" x="258.242133" y="120.11063" style="fill: #4a6fa5"/>
    </g>
    <g clip-path="url(#pdd2f5e9f1e)">
     <use xlink:href="#C0_0_173182dc14" x="139.36582" y="120.868145" style="fill: #4a6fa5"/>
    </g>
    <g clip-path="url(#pdd2f5e9f1e)">
     <use xlink:href="#C0_0_173182dc14" x="309.877808" y="184.919648" style="fill: #4a6fa5"/>
    </g>
    <g clip-path="url(#pdd2f5e9f1e)">
     <use xlink:href="#C0_0_173182dc14" x="410.22804" y="270.066411" style="fill: #4a6fa5"/>
    </g>
    <g clip-path="url(#pdd2f5e9f1e)">
     <use xlink:href="#C0_0_173182dc14" x="193.310575" y="165.297032" style="fill: #4a6fa5"/>
    </g>
    <g clip-path="url(#pdd2f5e9f1e)">
     <use xlink:href="#C0_0_173182dc14" x="363.43664" y="309.933867" style="fill: #4a6fa5"/>
    </g>
    <g clip-path="url(#pdd2f5e9f1e)">
     <use xlink:href="#C0_0_173182dc14" x="296.434799" y="360.991354" style="fill: #4a6fa5"/>
    </g>
    <g clip-path="url(#pdd2f5e9f1e)">
     <use xlink:href="#C0_0_173182dc14" x="248.651092" y="134.084306" style="fill: #4a6fa5"/>
    </g>
    <g clip-path="url(#pdd2f5e9f1e)">
     <use xlink:href="#C0_0_173182dc14" x="51.619432" y="150.826694" style="fill: #4a6fa5"/>
    </g>
    <g clip-path="url(#pdd2f5e9f1e)">
     <use xlink:href="#C0_0_173182dc14" x="31.41234" y="57.449299" style="fill: #4a6fa5"/>
    </g>
    <g clip-path="url(#pdd2f5e9f1e)">
     <use xlink:href="#C0_0_173182dc14" x="215.016066" y="279.959002" style="fill: #4a6fa5"/>
    </g>
    <g clip-path="url(#pdd2f5e9f1e)">
     <use xlink:href="#C0_0_173182dc14" x="317.00855" y="233.685918" style="fill: #4a6fa5"/>
    </g>
    <g clip-path="url(#pdd2f5e9f1e)">
     <use xlink:href="#C0_0_173182dc14" x="321.223231" y="411.336241" style="fill: #4a6fa5"/>
    </g>
    <g clip-path="url(#pdd2f5e9f1e)">
     <use xlink:href="#C0_0_173182dc14" x="253.144353" y="219.584667" style="fill: #4a6fa5"/>
    </g>
    <g clip-path="url(#pdd2f5e9f1e)">
     <use xlink:href="#C0_0_173182dc14" x="402.754492" y="429.627174" style="fill: #4a6fa5"/>
    </g>
    <g clip-path="url(#pdd2f5e9f1e)">
     <use xlink:href="#C0_0_173182dc14" x="208.595262" y="190.027299" style="fill: #4a6fa5"/>
    </g>
    <g clip-path="url(#pdd2f5e9f1e)">
     <use xlink:href="#C0_0_173182dc14" x="248.265028" y="415.62894" style="fill: #4a6fa5"/>
    </g>
    <g clip-path="url(#pdd2f5e9f1e)">
     <use xlink:href="#C0_0_173182dc14" x="265.474006" y="355.660529" style="fill: #4a6fa5"/>
    </g>
    <g clip-path="url(#pdd2f5e9f1e)">
     <use xlink:href="#C0_0_173182dc14" x="104.376538" y="89.718741" style="fill: #4a6fa5"/>
    </g>
    <g clip-path="url(#pdd2f5e9f1e)">
     <use xlink:href="#C0_0_173182dc14" x="105.305389" y="261.640693" style="fill: #4a6fa5"/>
    </g>
    <g clip-path="url(#pdd2f5e9f1e)">
     <use xlink:href="#C0_0_173182dc14" x="329.097459" y="159.141929" style="fill: #4a6fa5"/>
    </g>
    <g clip-path="url(#pdd2f5e9f1e)">
     <use xlink:href="#C0_0_173182dc14" x="249.363665" y="118.741757" style="fill: #4a6fa5"/>
    </g>
    <g clip-path="url(#pdd2f5e9f1e)">
     <use xlink:href="#C0_0_173182dc14" x="213.860079" y="194.356732" style="fill: #4a6fa5"/>
    </g>
    <g clip-path="url(#pdd2f5e9f1e)">
     <use xlink:href="#C0_0_173182dc14" x="356.898963" y="170.980296" style="fill: #4a6fa5"/>
    </g>
    <g clip-path="url(#pdd2f5e9f1e)">
     <use xlink:href="#C0_0_173182dc14" x="285.161564" y="281.150843" style="fill: #4a6fa5"/>
    </g>
    <g clip-path="url(#pdd2f5e9f1e)">
     <use xlink:href="#C0_0_173182dc14" x="251.334226" y="285.220441" style="fill: #4a6fa5"/>
    </g>
    <g clip-path="url(#pdd2f5e9f1e)">
     <use xlink:href="#C0_0_173182dc14" x="326.669072" y="291.561179" style="fill: #4a6fa5"/>
    </g>
    <g clip-path="url(#pdd2f5e9f1e)">
     <use xlink:href="#C0_0_173182dc14" x="214.186172" y="139.640013" style="fill: #4a6fa5"/>
    </g>
    <g clip-path="url(#pdd2f5e9f1e)">
     <use xlink:href="#C0_0_173182dc14" x="229.188684" y="308.736186" style="fill: #4a6fa5"/>
    </g>
    <g clip-path="url(#pdd2f5e9f1e)">
     <use xlink:href="#C0_0_173182dc14" x="360.100137" y="291.345491" style="fill: #4a6fa5"/>
    </g>
    <g clip-path="url(#pdd2f5e9f1e)">
     <use xlink:href="#C0_0_173182dc14" x="367.355436" y="127.574972" style="fill: #4a6fa5"/>
    </g>
    <g clip-path="url(#pdd2f5e9f1e)">
     <use xlink:href="#C0_0_173182dc14" x="206.35476" y="156.883306" style="fill: #4a6fa5"/>
    </g>
    <g clip-path="url(#pdd2f5e9f1e)">
     <use xlink:href="#C0_0_173182dc14" x="39.091798" y="287.766157" style="fill: #4a6fa5"/>
    </g>
    <g clip-path="url(#pdd2f5e9f1e)">
     <use xlink:href="#C0_0_173182dc14" x="373.676761" y="210.903233" style="fill: #4a6fa5"/>
    </g>
    <g clip-path="url(#pdd2f5e9f1e)">
     <use xlink:href="#C0_0_173182dc14" x="251.132638" y="176.389415" style="fill: #4a6fa5"/>
    </g>
    <g clip-path="url(#pdd2f5e9f1e)">
     <use xlink:href="#C0_0_173182dc14" x="299.681456" y="209.259" style="fill: #4a6fa5"/>
    </g>
    <g clip-path="url(#pdd2f5e9f1e)">
     <use xlink:href="#C0_0_173182dc14" x="195.555151" y="371.343013" style="fill: #4a6fa5"/>
    </g>
    <g clip-path="url(#pdd2f5e9f1e)">
     <use xlink:href="#C0_0_173182dc14" x="143.708272" y="327.010137" style="fill: #4a6fa5"/>
    </g>
    <g clip-path="url(#pdd2f5e9f1e)">
     <use xlink:href="#C0_0_173182dc14" x="199.652926" y="40.958437" style="fill: #4a6fa5"/>
    </g>
    <g clip-path="url(#pdd2f5e9f1e)">
     <use xlink:href="#C0_0_173182dc14" x="167.977417" y="264.440489" style="fill: #4a6fa5"/>
    </g>
    <g clip-path="url(#pdd2f5e9f1e)">
     <use xlink:href="#C0_0_173182dc14" x="175.704837" y="210.138261" style="fill: #4a6fa5"/>
    </g>
    <g clip-path="url(#pdd2f5e9f1e)">
     <use xlink:href="#C0_0_173182dc14" x="409.148774" y="85.513051" style="fill: #4a6fa5"/>
    </g>
    <g clip-path="url(#pdd2f5e9f1e)">
     <use xlink:href="#C0_0_173182dc14" x="177.937384" y="337.551102" style="fill: #4a6fa5"/>
    </g>
    <g clip-path="url(#pdd2f5e9f1e)">
     <use xlink:href="#C0_0_173182dc14" x="383.425315" y="245.622228" style="fill: #4a6fa5"/>
    </g>
    <g clip-path="url(#pdd2f5e9f1e)">
     <use xlink:href="#C0_0_173182dc14" x="302.86935" y="415.98124" style="fill: #4a6fa5"/>
    </g>
    <g clip-path="url(#pdd2f5e9f1e)">
     <use xlink:href="#C0_0_173182dc14" x="376.19807" y="318.890843" style="fill: #4a6fa5"/>
    </g>
    <g clip-path="url(#pdd2f5e9f1e)">
     <use xlink:href="#C0_0_173182dc14" x="225.490645" y="365.454002" style="fill: #4a6fa5"/>
    </g>
   </g>
   <g id="text_1">
    <!-- SetPoints -->
    <g transform="translate(204.618739 14.798437) scale(0.1 -0.1)">
     <defs>
      <path id="DejaVuSans-53" d="M 3425 4513 
L 3425 3897 
Q 3066 4069 2747 4153 
Q 2428 4238 2131 4238 
Q 1616 4238 1336 4038 
Q 1056 3838 1056 3469 
Q 1056 3159 1242 3001 
Q 1428 2844 1947 2747 
L 2328 2669 
Q 3034 2534 3370 2195 
Q 3706 1856 3706 1288 
Q 3706 609 3251 259 
Q 2797 -91 1919 -91 
Q 1588 -91 1214 -16 
Q 841 59 441 206 
L 441 856 
Q 825 641 1194 531 
Q 1563 422 1919 422 
Q 2459 422 2753 634 
Q 3047 847 3047 1241 
Q 3047 1584 2836 1778 
Q 2625 1972 2144 2069 
L 1759 2144 
Q 1053 2284 737 2584 
Q 422 2884 422 3419 
Q 422 4038 858 4394 
Q 1294 4750 2059 4750 
Q 2388 4750 2728 4690 
Q 3069 4631 3425 4513 
z
" transform="scale(0.015625)"/>
      <path id="DejaVuSans-65" d="M 3597 1894 
L 3597 1613 
L 953 1613 
Q 991 1019 1311 708 
Q 1631 397 2203 397 
Q 2534 397 2845 478 
Q 3156 559 3463 722 
L 3463 178 
Q 3153 47 2828 -22 
Q 2503 -91 2169 -91 
Q 1331 -91 842 396 
Q 353 884 353 1716 
Q 353 2575 817 3079 
Q 1281 3584 2069 3584 
Q 2775 3584 3186 3129 
Q 3597 2675 3597 1894 
z
M 3022 2063 
Q 3016 2534 2758 2815 
Q 2500 3097 2075 3097 
Q 1594 3097 1305 2825 
Q 1016 2553 972 2059 
L 3022 2063 
z
" transform="scale(0.015625)"/>
      <path id="DejaVuSans-74" d="M 1172 4494 
L 1172 3500 
L 2356 3500 
L 2356 3053 
L 1172 3053 
L 1172 1153 
Q 1172 725 1289 603 
Q 1406 481 1766 481 
L 2356 481 
L 2356 0 
L 1766 0 
Q 1100 0 847 248 
Q 594 497 594 1153 
L 594 3053 
L 172 3053 
L 172 3500 
L 594 3500 
L 594 4494 
L 1172 4494 
z
" transform="scale(0.015625)"/>
      <path id="DejaVuSans-50" d="M 1259 4147 
L 1259 2394 
L 2053 2394 
Q 2494 2394 2734 2622 
Q 2975 2850 2975 3272 
Q 2975 3691 2734 3919 
Q 2494 4147 2053 4147 
L 1259 4147 
z
M 628 4666 
L 2053 4666 
Q 2838 4666 3239 4311 
Q 3641 3956 3641 3272 
Q 3641 2581 3239 2228 
Q 2838 1875 2053 1875 
L 1259 1875 
L 1259 0 
L 628 0 
L 628 4666 
z
" transform="scale(0.015625)"/>
      <path id="DejaVuSans-6f" d="M 1959 3097 
Q 1497 3097 1228 2736 
Q 959 2375 959 1747 
Q 959 1119 1226 758 
Q 1494 397 1959 397 
Q 2419 397 2687 759 
Q 2956 1122 2956 1747 
Q 2956 2369 2687 2733 
Q 2419 3097 1959 3097 
z
M 1959 3584 
Q 2709 3584 3137 3096 
Q 3566 2609 3566 1747 
Q 3566 888 3137 398 
Q 2709 -91 1959 -91 
Q 1206 -91 779 398 
Q 353 888 353 1747 
Q 353 2609 779 3096 
Q 1206 3584 1959 3584 
z
" transform="scale(0.015625)"/>
      <path id="DejaVuSans-69" d="M 603 3500 
L 1178 3500 
L 1178 0 
L 603 0 
L 603 3500 
z
M 603 4863 
L 1178 4863 
L 1178 4134 
L 603 4134 
L 603 4863 
z
" transform="scale(0.015625)"/>
      <path id="DejaVuSans-6e" d="M 3513 2113 
L 3513 0 
L 2938 0 
L 2938 2094 
Q 2938 2591 2744 2837 
Q 2550 3084 2163 3084 
Q 1697 3084 1428 2787 
Q 1159 2491 1159 1978 
L 1159 0 
L 581 0 
L 581 3500 
L 1159 3500 
L 1159 2956 
Q 1366 3272 1645 3428 
Q 1925 3584 2291 3584 
Q 2894 3584 3203 3211 
Q 3513 2838 3513 2113 
z
" transform="scale(0.015625)"/>
      <path id="DejaVuSans-73" d="M 2834 3397 
L 2834 2853 
Q 2591 2978 2328 3040 
Q 2066 3103 1784 3103 
Q 1356 3103 1142 2972 
Q 928 2841 928 2578 
Q 928 2378 1081 2264 
Q 1234 2150 1697 2047 
L 1894 2003 
Q 2506 1872 2764 1633 
Q 3022 1394 3022 966 
Q 3022 478 2636 193 
Q 2250 -91 1575 -91 
Q 1294 -91 989 -36 
Q 684 19 347 128 
L 347 722 
Q 666 556 975 473 
Q 1284 391 1588 391 
Q 1994 391 2212 530 
Q 2431 669 2431 922 
Q 2431 1156 2273 1281 
Q 2116 1406 1581 1522 
L 1381 1569 
Q 847 1681 609 1914 
Q 372 2147 372 2553 
Q 372 3047 722 3315 
Q 1072 3584 1716 3584 
Q 2034 3584 2315 3537 
Q 2597 3491 2834 3397 
z
" transform="scale(0.015625)"/>
     </defs>
     <use xlink:href="#DejaVuSans-53"/>
     <use xlink:href="#DejaVuSans-65" transform="translate(63.476562 0)"/>
     <use xlink:href="#DejaVuSans-74" transform="translate(125 0)"/>
     <use xlink:href="#DejaVuSans-50" transform="translate(164.208984 0)"/>
     <use xlink:href="#DejaVuSans-6f" transform="translate(220.886719 0)"/>
     <use xlink:href="#DejaVuSans-69" transform="translate(282.068359 0)"/>
     <use xlink:href="#DejaVuSans-6e" transform="translate(309.851562 0)"/>
     <use xlink:href="#DejaVuSans-74" transform="translate(373.230469 0)"/>
     <use xlink:href="#DejaVuSans-73" transform="translate(412.439453 0)"/>
    </g>
   </g>
  </g>
 </g>
 <defs>
  <clipPath id="pdd2f5e9f1e">
   <rect x="7.2" y="20.798437" width="441.290603" height="443.52"/>
  </clipPath>
 </defs>
</svg>
