<?xml version="1.0" encoding="utf-8" standalone="no"?>
<!DOCTYPE svg PUBLIC "-//W3C//DTD SVG 1.1//EN"
  "http://www.w3.org/Graphics/SVG/1.1/DTD/svg11.dtd">
<svg xmlns:xlink="http://www.w3.org/1999/xlink" width="460.8pt" height="467.55212pt" viewBox="0 0 460.8 467.55212" xmlns="http://www.w3.org/2000/svg" version="1.1">
 <metadata>
  <rdf:RDF xmlns:dc="http://purl.org/dc/elements/1.1/" xmlns:cc="http://creativecommons.org/ns#" xmlns:rdf="http://www.w3.org/1999/02/22-rdf-syntax-ns#">
   <cc:Work>
    <dc:type rdf:resource="http://purl.org/dc/dcmitype/StillImage"/>
    <dc:date>2026-05-25T00:54:21.676281</dc:date>
    <dc:format>image/svg+xml</dc:format>
    <dc:creator>
     <cc:Agent>
      <dc:title>Matplotlib v3.10.9, https://matplotlib.org/</dc:title>
     </cc:Agent>
    </dc:creator>
   </cc:Work>
  </rdf:RDF>
 </metadata>
 <defs>
  <style type="text/css">*{stroke-linejoin: round; stroke-linecap: butt}</style>
 </defs>
 <g id="figure_1">
  <g id="patch_1">
   <path d="M 0 467.55212 
L 460.8 467.55212 
L 460.8 0 
L 0 0 
z
" style="fill: #ffffff"/>
  </g>
  <g id="axes_1">
   <g id="PathCollection_1">
    <defs>
     <path id="C0_0_6a1f8e900b" d="M 0 1.414214 
C 0.375054 1.414214 0.734797 1.265203 1 1 
C 1.265203 0.734797 1.414214 0.375054 1.414214 -0 
C 1.414214 -0.375054 1.265203 -0.734797 1 -1 
C 0.734797 -1.265203 0.375054 -1.414214 0 -1.414214 
C -0.375054 -1.414214 -0.734797 -1.265203 -1 -1 
C -1.265203 -0.734797 -1.414214 -0.375054 -1.414214 0 
C -1.414214 0.375054 -1.265203 0.734797 -1 1 
C -0.734797 1.265203 -0.375054 1.414214 0 1.414214 
z
"/>
    </defs>
    <g clip-path="url(#pfa9450458d)">
     <use xlink:href="#C0_0_6a1f8e900b" x="343.363726" y="312.5153" style="fill: #4a6fa5"/>
    </g>
    <g clip-path="url(#pfa9450458d)">
     <use xlink:href="#C0_0_6a1f8e900b" x="118.114852" y="285.675019" style="fill: #4a6fa5"/>
    </g>
    <g clip-path="url(#pfa9450458d)">
     <use xlink:href="#C0_0_6a1f8e900b" x="148.78717" y="365.615431" style="fill: #4a6fa5"/>
    </g>
    <g clip-path="url(#pfa9450458d)">
     <use xlink:href="#C0_0_6a1f8e900b" x="383.40998" y="427.896905" style="fill: #4a6fa5"/>
    </g>
    <g clip-path="url(#pfa9450458d)">
     <use xlink:href="#C0_0_6a1f8e900b" x="28.117401" y="361.525012" style="fill: #4a6fa5"/>
    </g>
    <g clip-path="url(#pfa9450458d)">
     <use xlink:href="#C0_0_6a1f8e900b" x="361.999237" y="74.047856" style="fill: #4a6fa5"/>
    </g>
    <g clip-path="url(#pfa9450458d)">
     <use xlink:href="#C0_0_6a1f8e900b" x="352.113683" y="104.85786" style="fill: #4a6fa5"/>
    </g>
    <g clip-path="url(#pfa9450458d)">
     <use xlink:href="#C0_0_6a1f8e900b" x="217.435998" y="402.649351" style="fill: #4a6fa5"/>
    </g>
    <g clip-path="url(#pfa9450458d)">
     <use xlink:href="#C0_0_6a1f8e900b" x="149.959959" y="201.585588" style="fill: #4a6fa5"/>
    </g>
    <g clip-path="url(#pfa9450458d)">
     <use xlink:href="#C0_0_6a1f8e900b" x="139.89116" y="252.563191" style="fill: #4a6fa5"/>
    </g>
    <g clip-path="url(#pfa9450458d)">
     <use xlink:href="#C0_0_6a1f8e900b" x="130.252332" y="205.306801" style="fill: #4a6fa5"/>
    </g>
    <g clip-path="url(#pfa9450458d)">
     <use xlink:href="#C0_0_6a1f8e900b" x="208.082527" y="178.877331" style="fill: #4a6fa5"/>
    </g>
    <g clip-path="url(#pfa9450458d)">
     <use xlink:href="#C0_0_6a1f8e900b" x="232.417702" y="323.163162" style="fill: #4a6fa5"/>
    </g>
    <g clip-path="url(#pfa9450458d)">
     <use xlink:href="#C0_0_6a1f8e900b" x="252.447054" y="55.2717" style="fill: #4a6fa5"/>
    </g>
    <g clip-path="url(#pfa9450458d)">
     <use xlink:href="#C0_0_6a1f8e900b" x="433.309091" y="258.028486" style="fill: #4a6fa5"/>
    </g>
    <g clip-path="url(#pfa9450458d)">
     <use xlink:href="#C0_0_6a1f8e900b" x="350.310185" y="191.633401" style="fill: #4a6fa5"/>
    </g>
    <g clip-path="url(#pfa9450458d)">
     <use xlink:href="#C0_0_6a1f8e900b" x="280.550814" y="188.717806" style="fill: #4a6fa5"/>
    </g>
    <g clip-path="url(#pfa9450458d)">
     <use xlink:href="#C0_0_6a1f8e900b" x="430.63295" y="373.399139" style="fill: #4a6fa5"/>
    </g>
    <g clip-path="url(#pfa9450458d)">
     <use xlink:href="#C0_0_6a1f8e900b" x="114.064514" y="423.329815" style="fill: #4a6fa5"/>
    </g>
    <g clip-path="url(#pfa9450458d)">
     <use xlink:href="#C0_0_6a1f8e900b" x="91.519652" y="280.256861" style="fill: #4a6fa5"/>
    </g>
    <g clip-path="url(#pfa9450458d)">
     <use xlink:href="#C0_0_6a1f8e900b" x="276.606401" y="136.01287" style="fill: #4a6fa5"/>
    </g>
    <g clip-path="url(#pfa9450458d)">
     <use xlink:href="#C0_0_6a1f8e900b" x="43.943421" y="115.06587" style="fill: #4a6fa5"/>
    </g>
    <g clip-path="url(#pfa9450458d)">
     <use xlink:href="#C0_0_6a1f8e900b" x="40.562825" y="149.941953" style="fill: #4a6fa5"/>
    </g>
    <g clip-path="url(#pfa9450458d)">
     <use xlink:href="#C0_0_6a1f8e900b" x="236.648929" y="402.322324" style="fill: #4a6fa5"/>
    </g>
    <g clip-path="url(#pfa9450458d)">
     <use xlink:href="#C0_0_6a1f8e900b" x="216.728542" y="74.911052" style="fill: #4a6fa5"/>
    </g>
    <g clip-path="url(#pfa9450458d)">
     <use xlink:href="#C0_0_6a1f8e900b" x="401.256414" y="120.461092" style="fill: #4a6fa5"/>
    </g>
    <g clip-path="url(#pfa9450458d)">
     <use xlink:href="#C0_0_6a1f8e900b" x="283.434368" y="89.504105" style="fill: #4a6fa5"/>
    </g>
    <g clip-path="url(#pfa9450458d)">
     <use xlink:href="#C0_0_6a1f8e900b" x="236.333375" y="234.514893" style="fill: #4a6fa5"/>
    </g>
    <g clip-path="url(#pfa9450458d)">
     <use xlink:href="#C0_0_6a1f8e900b" x="229.27726" y="73.97787" style="fill: #4a6fa5"/>
    </g>
    <g clip-path="url(#pfa9450458d)">
     <use xlink:href="#C0_0_6a1f8e900b" x="127.242895" y="429.554857" style="fill: #4a6fa5"/>
    </g>
    <g clip-path="url(#pfa9450458d)">
     <use xlink:href="#C0_0_6a1f8e900b" x="30.788871" y="436.250556" style="fill: #4a6fa5"/>
    </g>
    <g clip-path="url(#pfa9450458d)">
     <use xlink:href="#C0_0_6a1f8e900b" x="104.69144" y="440.372408" style="fill: #4a6fa5"/>
    </g>
    <g clip-path="url(#pfa9450458d)">
     <use xlink:href="#C0_0_6a1f8e900b" x="309.133738" y="345.214604" style="fill: #4a6fa5"/>
    </g>
    <g clip-path="url(#pfa9450458d)">
     <use xlink:href="#C0_0_6a1f8e900b" x="108.048651" y="346.932743" style="fill: #4a6fa5"/>
    </g>
    <g clip-path="url(#pfa9450458d)">
     <use xlink:href="#C0_0_6a1f8e900b" x="177.172512" y="371.920361" style="fill: #4a6fa5"/>
    </g>
    <g clip-path="url(#pfa9450458d)">
     <use xlink:href="#C0_0_6a1f8e900b" x="27.490909" y="216.612262" style="fill: #4a6fa5"/>
    </g>
    <g clip-path="url(#pfa9450458d)">
     <use xlink:href="#C0_0_6a1f8e900b" x="365.607988" y="432.69185" style="fill: #4a6fa5"/>
    </g>
    <g clip-path="url(#pfa9450458d)">
     <use xlink:href="#C0_0_6a1f8e900b" x="89.166435" y="207.065081" style="fill: #4a6fa5"/>
    </g>
    <g clip-path="url(#pfa9450458d)">
     <use xlink:href="#C0_0_6a1f8e900b" x="135.461172" y="380.714691" style="fill: #4a6fa5"/>
    </g>
    <g clip-path="url(#pfa9450458d)">
     <use xlink:href="#C0_0_6a1f8e900b" x="386.183742" y="171.266976" style="fill: #4a6fa5"/>
    </g>
    <g clip-path="url(#pfa9450458d)">
     <use xlink:href="#C0_0_6a1f8e900b" x="234.562887" y="440.020596" style="fill: #4a6fa5"/>
    </g>
    <g clip-path="url(#pfa9450458d)">
     <use xlink:href="#C0_0_6a1f8e900b" x="372.606123" y="321.56295" style="fill: #4a6fa5"/>
    </g>
    <g clip-path="url(#pfa9450458d)">
     <use xlink:href="#C0_0_6a1f8e900b" x="287.727118" y="64.686921" style="fill: #4a6fa5"/>
    </g>
    <g clip-path="url(#pfa9450458d)">
     <use xlink:href="#C0_0_6a1f8e900b" x="329.48624" y="228.339343" style="fill: #4a6fa5"/>
    </g>
    <g clip-path="url(#pfa9450458d)">
     <use xlink:href="#C0_0_6a1f8e900b" x="63.401754" y="116.553015" style="fill: #4a6fa5"/>
    </g>
    <g clip-path="url(#pfa9450458d)">
     <use xlink:href="#C0_0_6a1f8e900b" x="247.392145" y="179.388375" style="fill: #4a6fa5"/>
    </g>
    <g clip-path="url(#pfa9450458d)">
     <use xlink:href="#C0_0_6a1f8e900b" x="233.736913" y="198.732831" style="fill: #4a6fa5"/>
    </g>
    <g clip-path="url(#pfa9450458d)">
     <use xlink:href="#C0_0_6a1f8e900b" x="382.504011" y="370.386176" style="fill: #4a6fa5"/>
    </g>
    <g clip-path="url(#pfa9450458d)">
     <use xlink:href="#C0_0_6a1f8e900b" x="173.78761" y="213.609264" style="fill: #4a6fa5"/>
    </g>
    <g clip-path="url(#pfa9450458d)">
     <use xlink:href="#C0_0_6a1f8e900b" x="270.732296" y="432.405183" style="fill: #4a6fa5"/>
    </g>
    <g clip-path="url(#pfa9450458d)">
     <use xlink:href="#C0_0_6a1f8e900b" x="50.207931" y="120.613381" style="fill: #4a6fa5"/>
    </g>
    <g clip-path="url(#pfa9450458d)">
     <use xlink:href="#C0_0_6a1f8e900b" x="184.576959" y="55.79543" style="fill: #4a6fa5"/>
    </g>
    <g clip-path="url(#pfa9450458d)">
     <use xlink:href="#C0_0_6a1f8e900b" x="158.145311" y="99.194602" style="fill: #4a6fa5"/>
    </g>
    <g clip-path="url(#pfa9450458d)">
     <use xlink:href="#C0_0_6a1f8e900b" x="87.422743" y="427.894617" style="fill: #4a6fa5"/>
    </g>
    <g clip-path="url(#pfa9450458d)">
     <use xlink:href="#C0_0_6a1f8e900b" x="359.998182" y="310.068922" style="fill: #4a6fa5"/>
    </g>
    <g clip-path="url(#pfa9450458d)">
     <use xlink:href="#C0_0_6a1f8e900b" x="181.227502" y="318.52146" style="fill: #4a6fa5"/>
    </g>
    <g clip-path="url(#pfa9450458d)">
     <use xlink:href="#C0_0_6a1f8e900b" x="426.45422" y="402.521991" style="fill: #4a6fa5"/>
    </g>
    <g clip-path="url(#pfa9450458d)">
     <use xlink:href="#C0_0_6a1f8e900b" x="267.380079" y="192.242696" style="fill: #4a6fa5"/>
    </g>
    <g clip-path="url(#pfa9450458d)">
     <use xlink:href="#C0_0_6a1f8e900b" x="273.544308" y="122.334517" style="fill: #4a6fa5"/>
    </g>
    <g clip-path="url(#pfa9450458d)">
     <use xlink:href="#C0_0_6a1f8e900b" x="287.023075" y="320.273488" style="fill: #4a6fa5"/>
    </g>
    <g clip-path="url(#pfa9450458d)">
     <use xlink:href="#C0_0_6a1f8e900b" x="302.75783" y="95.593686" style="fill: #4a6fa5"/>
    </g>
    <g clip-path="url(#pfa9450458d)">
     <use xlink:href="#C0_0_6a1f8e900b" x="87.663464" y="122.470066" style="fill: #4a6fa5"/>
    </g>
    <g clip-path="url(#pfa9450458d)">
     <use xlink:href="#C0_0_6a1f8e900b" x="206.133633" y="395.802745" style="fill: #4a6fa5"/>
    </g>
    <g clip-path="url(#pfa9450458d)">
     <use xlink:href="#C0_0_6a1f8e900b" x="123.989462" y="134.85525" style="fill: #4a6fa5"/>
    </g>
    <g clip-path="url(#pfa9450458d)">
     <use xlink:href="#C0_0_6a1f8e900b" x="190.660142" y="87.487076" style="fill: #4a6fa5"/>
    </g>
    <g clip-path="url(#pfa9450458d)">
     <use xlink:href="#C0_0_6a1f8e900b" x="65.533002" y="367.918821" style="fill: #4a6fa5"/>
    </g>
    <g clip-path="url(#pfa9450458d)">
     <use xlink:href="#C0_0_6a1f8e900b" x="421.985962" y="213.917615" style="fill: #4a6fa5"/>
    </g>
    <g clip-path="url(#pfa9450458d)">
     <use xlink:href="#C0_0_6a1f8e900b" x="113.93985" y="187.275919" style="fill: #4a6fa5"/>
    </g>
    <g clip-path="url(#pfa9450458d)">
     <use xlink:href="#C0_0_6a1f8e900b" x="300.840754" y="199.312457" style="fill: #4a6fa5"/>
    </g>
    <g clip-path="url(#pfa9450458d)">
     <use xlink:href="#C0_0_6a1f8e900b" x="148.891021" y="409.261846" style="fill: #4a6fa5"/>
    </g>
    <g clip-path="url(#pfa9450458d)">
     <use xlink:href="#C0_0_6a1f8e900b" x="383.624222" y="178.093142" style="fill: #4a6fa5"/>
    </g>
    <g clip-path="url(#pfa9450458d)">
     <use xlink:href="#C0_0_6a1f8e900b" x="296.932841" y="190.056446" style="fill: #4a6fa5"/>
    </g>
    <g clip-path="url(#pfa9450458d)">
     <use xlink:href="#C0_0_6a1f8e900b" x="79.81844" y="111.520793" style="fill: #4a6fa5"/>
    </g>
    <g clip-path="url(#pfa9450458d)">
     <use xlink:href="#C0_0_6a1f8e900b" x="371.75668" y="119.857082" style="fill: #4a6fa5"/>
    </g>
    <g clip-path="url(#pfa9450458d)">
     <use xlink:href="#C0_0_6a1f8e900b" x="412.623803" y="314.771253" style="fill: #4a6fa5"/>
    </g>
    <g clip-path="url(#pfa9450458d)">
     <use xlink:href="#C0_0_6a1f8e900b" x="395.834277" y="153.191685" style="fill: #4a6fa5"/>
    </g>
    <g clip-path="url(#pfa9450458d)">
     <use xlink:href="#C0_0_6a1f8e900b" x="259.084809" y="93.767011" style="fill: #4a6fa5"/>
    </g>
    <g clip-path="url(#pfa9450458d)">
     <use xlink:href="#C0_0_6a1f8e900b" x="85.483287" y="83.261382" style="fill: #4a6fa5"/>
    </g>
    <g clip-path="url(#pfa9450458d)">
     <use xlink:href="#C0_0_6a1f8e900b" x="104.716544" y="382.555554" style="fill: #4a6fa5"/>
    </g>
    <g clip-path="url(#pfa9450458d)">
     <use xlink:href="#C0_0_6a1f8e900b" x="405.650232" y="437.7181" style="fill: #4a6fa5"/>
    </g>
    <g clip-path="url(#pfa9450458d)">
     <use xlink:href="#C0_0_6a1f8e900b" x="251.967951" y="182.342151" style="fill: #4a6fa5"/>
    </g>
    <g clip-path="url(#pfa9450458d)">
     <use xlink:href="#C0_0_6a1f8e900b" x="99.842714" y="360.801537" style="fill: #4a6fa5"/>
    </g>
    <g clip-path="url(#pfa9450458d)">
     <use xlink:href="#C0_0_6a1f8e900b" x="387.707859" y="217.981441" style="fill: #4a6fa5"/>
    </g>
    <g clip-path="url(#pfa9450458d)">
     <use xlink:href="#C0_0_6a1f8e900b" x="288.485971" y="62.042243" style="fill: #4a6fa5"/>
    </g>
    <g clip-path="url(#pfa9450458d)">
     <use xlink:href="#C0_0_6a1f8e900b" x="259.074631" y="293.43155" style="fill: #4a6fa5"/>
    </g>
    <g clip-path="url(#pfa9450458d)">
     <use xlink:href="#C0_0_6a1f8e900b" x="179.935151" y="345.212201" style="fill: #4a6fa5"/>
    </g>
    <g clip-path="url(#pfa9450458d)">
     <use xlink:href="#C0_0_6a1f8e900b" x="194.120633" y="261.846199" style="fill: #4a6fa5"/>
    </g>
    <g clip-path="url(#pfa9450458d)">
     <use xlink:href="#C0_0_6a1f8e900b" x="123.958876" y="179.708429" style="fill: #4a6fa5"/>
    </g>
    <g clip-path="url(#pfa9450458d)">
     <use xlink:href="#C0_0_6a1f8e900b" x="41.535467" y="407.275941" style="fill: #4a6fa5"/>
    </g>
    <g clip-path="url(#pfa9450458d)">
     <use xlink:href="#C0_0_6a1f8e900b" x="384.500612" y="292.913871" style="fill: #4a6fa5"/>
    </g>
    <g clip-path="url(#pfa9450458d)">
     <use xlink:href="#C0_0_6a1f8e900b" x="217.352222" y="393.927338" style="fill: #4a6fa5"/>
    </g>
    <g clip-path="url(#pfa9450458d)">
     <use xlink:href="#C0_0_6a1f8e900b" x="250.048335" y="177.579709" style="fill: #4a6fa5"/>
    </g>
    <g clip-path="url(#pfa9450458d)">
     <use xlink:href="#C0_0_6a1f8e900b" x="157.788076" y="108.792723" style="fill: #4a6fa5"/>
    </g>
    <g clip-path="url(#pfa9450458d)">
     <use xlink:href="#C0_0_6a1f8e900b" x="333.395605" y="294.440541" style="fill: #4a6fa5"/>
    </g>
    <g clip-path="url(#pfa9450458d)">
     <use xlink:href="#C0_0_6a1f8e900b" x="36.273147" y="296.539603" style="fill: #4a6fa5"/>
    </g>
    <g clip-path="url(#pfa9450458d)">
     <use xlink:href="#C0_0_6a1f8e900b" x="178.256433" y="227.878893" style="fill: #4a6fa5"/>
    </g>
    <g clip-path="url(#pfa9450458d)">
     <use xlink:href="#C0_0_6a1f8e900b" x="38.381863" y="360.645429" style="fill: #4a6fa5"/>
    </g>
    <g clip-path="url(#pfa9450458d)">
     <use xlink:href="#C0_0_6a1f8e900b" x="76.248806" y="347.407475" style="fill: #4a6fa5"/>
    </g>
    <g clip-path="url(#pfa9450458d)">
     <use xlink:href="#C0_0_6a1f8e900b" x="421.70779" y="313.672963" style="fill: #4a6fa5"/>
    </g>
    <g clip-path="url(#pfa9450458d)">
     <use xlink:href="#C0_0_6a1f8e900b" x="295.110316" y="261.471527" style="fill: #4a6fa5"/>
    </g>
    <g clip-path="url(#pfa9450458d)">
     <use xlink:href="#C0_0_6a1f8e900b" x="201.18524" y="415.282718" style="fill: #4a6fa5"/>
    </g>
    <g clip-path="url(#pfa9450458d)">
     <use xlink:href="#C0_0_6a1f8e900b" x="240.270765" y="140.635849" style="fill: #4a6fa5"/>
    </g>
    <g clip-path="url(#pfa9450458d)">
     <use xlink:href="#C0_0_6a1f8e900b" x="383.105447" y="211.702522" style="fill: #4a6fa5"/>
    </g>
    <g clip-path="url(#pfa9450458d)">
     <use xlink:href="#C0_0_6a1f8e900b" x="166.809577" y="326.013405" style="fill: #4a6fa5"/>
    </g>
    <g clip-path="url(#pfa9450458d)">
     <use xlink:href="#C0_0_6a1f8e900b" x="267.502545" y="416.913284" style="fill: #4a6fa5"/>
    </g>
    <g clip-path="url(#pfa9450458d)">
     <use xlink:href="#C0_0_6a1f8e900b" x="305.717945" y="136.360326" style="fill: #4a6fa5"/>
    </g>
    <g clip-path="url(#pfa9450458d)">
     <use xlink:href="#C0_0_6a1f8e900b" x="171.393749" y="395.008494" style="fill: #4a6fa5"/>
    </g>
    <g clip-path="url(#pfa9450458d)">
     <use xlink:href="#C0_0_6a1f8e900b" x="238.371472" y="394.137884" style="fill: #4a6fa5"/>
    </g>
    <g clip-path="url(#pfa9450458d)">
     <use xlink:href="#C0_0_6a1f8e900b" x="339.092502" y="395.170017" style="fill: #4a6fa5"/>
    </g>
    <g clip-path="url(#pfa9450458d)">
     <use xlink:href="#C0_0_6a1f8e900b" x="397.987637" y="415.392851" style="fill: #4a6fa5"/>
    </g>
    <g clip-path="url(#pfa9450458d)">
     <use xlink:href="#C0_0_6a1f8e900b" x="87.775687" y="77.760018" style="fill: #4a6fa5"/>
    </g>
    <g clip-path="url(#pfa9450458d)">
     <use xlink:href="#C0_0_6a1f8e900b" x="407.906372" y="338.472987" style="fill: #4a6fa5"/>
    </g>
    <g clip-path="url(#pfa9450458d)">
     <use xlink:href="#C0_0_6a1f8e900b" x="28.082031" y="323.265013" style="fill: #4a6fa5"/>
    </g>
    <g clip-path="url(#pfa9450458d)">
     <use xlink:href="#C0_0_6a1f8e900b" x="334.071822" y="107.875416" style="fill: #4a6fa5"/>
    </g>
    <g clip-path="url(#pfa9450458d)">
     <use xlink:href="#C0_0_6a1f8e900b" x="357.620282" y="194.979488" style="fill: #4a6fa5"/>
    </g>
    <g clip-path="url(#pfa9450458d)">
     <use xlink:href="#C0_0_6a1f8e900b" x="81.925033" y="372.067647" style="fill: #4a6fa5"/>
    </g>
    <g clip-path="url(#pfa9450458d)">
     <use xlink:href="#C0_0_6a1f8e900b" x="197.373006" y="270.72419" style="fill: #4a6fa5"/>
    </g>
    <g clip-path="url(#pfa9450458d)">
     <use xlink:href="#C0_0_6a1f8e900b" x="359.555512" y="86.954418" style="fill: #4a6fa5"/>
    </g>
    <g clip-path="url(#pfa9450458d)">
     <use xlink:href="#C0_0_6a1f8e900b" x="31.802495" y="295.046042" style="fill: #4a6fa5"/>
    </g>
    <g clip-path="url(#pfa9450458d)">
     <use xlink:href="#C0_0_6a1f8e900b" x="283.121624" y="157.760581" style="fill: #4a6fa5"/>
    </g>
    <g clip-path="url(#pfa9450458d)">
     <use xlink:href="#C0_0_6a1f8e900b" x="350.458204" y="409.03187" style="fill: #4a6fa5"/>
    </g>
    <g clip-path="url(#pfa9450458d)">
     <use xlink:href="#C0_0_6a1f8e900b" x="235.877514" y="151.032221" style="fill: #4a6fa5"/>
    </g>
    <g clip-path="url(#pfa9450458d)">
     <use xlink:href="#C0_0_6a1f8e900b" x="322.971352" y="130.921172" style="fill: #4a6fa5"/>
    </g>
    <g clip-path="url(#pfa9450458d)">
     <use xlink:href="#C0_0_6a1f8e900b" x="118.612544" y="110.750992" style="fill: #4a6fa5"/>
    </g>
    <g clip-path="url(#pfa9450458d)">
     <use xlink:href="#C0_0_6a1f8e900b" x="107.195259" y="172.769806" style="fill: #4a6fa5"/>
    </g>
    <g clip-path="url(#pfa9450458d)">
     <use xlink:href="#C0_0_6a1f8e900b" x="174.549882" y="296.945172" style="fill: #4a6fa5"/>
    </g>
    <g clip-path="url(#pfa9450458d)">
     <use xlink:href="#C0_0_6a1f8e900b" x="99.373593" y="422.369623" style="fill: #4a6fa5"/>
    </g>
    <g clip-path="url(#pfa9450458d)">
     <use xlink:href="#C0_0_6a1f8e900b" x="167.56689" y="236.36766" style="fill: #4a6fa5"/>
    </g>
    <g clip-path="url(#pfa9450458d)">
     <use xlink:href="#C0_0_6a1f8e900b" x="413.923337" y="138.701305" style="fill: #4a6fa5"/>
    </g>
    <g clip-path="url(#pfa9450458d)">
     <use xlink:href="#C0_0_6a1f8e900b" x="260.563436" y="370.555775" style="fill: #4a6fa5"/>
    </g>
    <g clip-path="url(#pfa9450458d)">
     <use xlink:href="#C0_0_6a1f8e900b" x="165.114477" y="339.703444" style="fill: #4a6fa5"/>
    </g>
    <g clip-path="url(#pfa9450458d)">
     <use xlink:href="#C0_0_6a1f8e900b" x="137.067361" y="229.270792" style="fill: #4a6fa5"/>
    </g>
    <g clip-path="url(#pfa9450458d)">
     <use xlink:href="#C0_0_6a1f8e900b" x="415.525482" y="142.436509" style="fill: #4a6fa5"/>
    </g>
    <g clip-path="url(#pfa9450458d)">
     <use xlink:href="#C0_0_6a1f8e900b" x="207.837793" y="81.77236" style="fill: #4a6fa5"/>
    </g>
    <g clip-path="url(#pfa9450458d)">
     <use xlink:href="#C0_0_6a1f8e900b" x="427.128097" y="397.192519" style="fill: #4a6fa5"/>
    </g>
    <g clip-path="url(#pfa9450458d)">
     <use xlink:href="#C0_0_6a1f8e900b" x="236.908292" y="373.243314" style="fill: #4a6fa5"/>
    </g>
    <g clip-path="url(#pfa9450458d)">
     <use xlink:href="#C0_0_6a1f8e900b" x="239.217525" y="121.4839" style="fill: #4a6fa5"/>
    </g>
    <g clip-path="url(#pfa9450458d)">
     <use xlink:href="#C0_0_6a1f8e900b" x="392.816003" y="184.91423" style="fill: #4a6fa5"/>
    </g>
    <g clip-path="url(#pfa9450458d)">
     <use xlink:href="#C0_0_6a1f8e900b" x="329.893983" y="153.631374" style="fill: #4a6fa5"/>
    </g>
    <g clip-path="url(#pfa9450458d)">
     <use xlink:href="#C0_0_6a1f8e900b" x="263.558748" y="40.77815" style="fill: #4a6fa5"/>
    </g>
    <g clip-path="url(#pfa9450458d)">
     <use xlink:href="#C0_0_6a1f8e900b" x="200.542511" y="64.343747" style="fill: #4a6fa5"/>
    </g>
    <g clip-path="url(#pfa9450458d)">
     <use xlink:href="#C0_0_6a1f8e900b" x="385.306323" y="103.689119" style="fill: #4a6fa5"/>
    </g>
    <g clip-path="url(#pfa9450458d)">
     <use xlink:href="#C0_0_6a1f8e900b" x="194.403328" y="130.658357" style="fill: #4a6fa5"/>
    </g>
    <g clip-path="url(#pfa9450458d)">
     <use xlink:href="#C0_0_6a1f8e900b" x="403.544509" y="287.007475" style="fill: #4a6fa5"/>
    </g>
    <g clip-path="url(#pfa9450458d)">
     <use xlink:href="#C0_0_6a1f8e900b" x="54.080361" y="186.261484" style="fill: #4a6fa5"/>
    </g>
    <g clip-path="url(#pfa9450458d)">
     <use xlink:href="#C0_0_6a1f8e900b" x="201.912208" y="373.17153" style="fill: #4a6fa5"/>
    </g>
    <g clip-path="url(#pfa9450458d)">
     <use xlink:href="#C0_0_6a1f8e900b" x="238.54183" y="137.86879" style="fill: #4a6fa5"/>
    </g>
    <g clip-path="url(#pfa9450458d)">
     <use xlink:href="#C0_0_6a1f8e900b" x="415.074845" y="138.606882" style="fill: #4a6fa5"/>
    </g>
    <g clip-path="url(#pfa9450458d)">
     <use xlink:href="#C0_0_6a1f8e900b" x="128.668637" y="153.499443" style="fill: #4a6fa5"/>
    </g>
    <g clip-path="url(#pfa9450458d)">
     <use xlink:href="#C0_0_6a1f8e900b" x="355.783979" y="266.638203" style="fill: #4a6fa5"/>
    </g>
    <g clip-path="url(#pfa9450458d)">
     <use xlink:href="#C0_0_6a1f8e900b" x="302.766405" y="293.897735" style="fill: #4a6fa5"/>
    </g>
    <g clip-path="url(#pfa9450458d)">
     <use xlink:href="#C0_0_6a1f8e900b" x="319.385431" y="276.879383" style="fill: #4a6fa5"/>
    </g>
    <g clip-path="url(#pfa9450458d)">
     <use xlink:href="#C0_0_6a1f8e900b" x="283.596377" y="435.00237" style="fill: #4a6fa5"/>
    </g>
    <g clip-path="url(#pfa9450458d)">
     <use xlink:href="#C0_0_6a1f8e900b" x="423.513318" y="103.159201" style="fill: #4a6fa5"/>
    </g>
   </g>
   <g id="text_1">
    <!-- SetPoints -->
    <g transform="translate(207.173437 14.798438) scale(0.1 -0.1)">
     <defs>
      <path id="DejaVuSans-53" d="M 3425 4513 
L 3425 3897 
Q 3066 4069 2747 4153 
Q 2428 4238 2131 4238 
Q 1616 4238 1336 4038 
Q 1056 3838 1056 3469 
Q 1056 3159 1242 3001 
Q 1428 2844 1947 2747 
L 2328 2669 
Q 3034 2534 3370 2195 
Q 3706 1856 3706 1288 
Q 3706 609 3251 259 
Q 2797 -91 1919 -91 
Q 1588 -91 1214 -16 
Q 841 59 441 206 
L 441 856 
Q 825 641 1194 531 
Q 1563 422 1919 422 
Q 2459 422 2753 634 
Q 3047 847 3047 1241 
Q 3047 1584 2836 1778 
Q 2625 1972 2144 2069 
L 1759 2144 
Q 1053 2284 737 2584 
Q 422 2884 422 3419 
Q 422 4038 858 4394 
Q 1294 4750 2059 4750 
Q 2388 4750 2728 4690 
Q 3069 4631 3425 4513 
z
" transform="scale(0.015625)"/>
      <path id="DejaVuSans-65" d="M 3597 1894 
L 3597 1613 
L 953 1613 
Q 991 1019 1311 708 
Q 1631 397 2203 397 
Q 2534 397 2845 478 
Q 3156 559 3463 722 
L 3463 178 
Q 3153 47 2828 -22 
Q 2503 -91 2169 -91 
Q 1331 -91 842 396 
Q 353 884 353 1716 
Q 353 2575 817 3079 
Q 1281 3584 2069 3584 
Q 2775 3584 3186 3129 
Q 3597 2675 3597 1894 
z
M 3022 2063 
Q 3016 2534 2758 2815 
Q 2500 3097 2075 3097 
Q 1594 3097 1305 2825 
Q 1016 2553 972 2059 
L 3022 2063 
z
" transform="scale(0.015625)"/>
      <path id="DejaVuSans-74" d="M 1172 4494 
L 1172 3500 
L 2356 3500 
L 2356 3053 
L 1172 3053 
L 1172 1153 
Q 1172 725 1289 603 
Q 1406 481 1766 481 
L 2356 481 
L 2356 0 
L 1766 0 
Q 1100 0 847 248 
Q 594 497 594 1153 
L 594 3053 
L 172 3053 
L 172 3500 
L 594 3500 
L 594 4494 
L 1172 4494 
z
" transform="scale(0.015625)"/>
      <path id="DejaVuSans-50" d="M 1259 4147 
L 1259 2394 
L 2053 2394 
Q 2494 2394 2734 2622 
Q 2975 2850 2975 3272 
Q 2975 3691 2734 3919 
Q 2494 4147 2053 4147 
L 1259 4147 
z
M 628 4666 
L 2053 4666 
Q 2838 4666 3239 4311 
Q 3641 3956 3641 3272 
Q 3641 2581 3239 2228 
Q 2838 1875 2053 1875 
L 1259 1875 
L 1259 0 
L 628 0 
L 628 4666 
z
" transform="scale(0.015625)"/>
      <path id="DejaVuSans-6f" d="M 1959 3097 
Q 1497 3097 1228 2736 
Q 959 2375 959 1747 
Q 959 1119 1226 758 
Q 1494 397 1959 397 
Q 2419 397 2687 759 
Q 2956 1122 2956 1747 
Q 2956 2369 2687 2733 
Q 2419 3097 1959 3097 
z
M 1959 3584 
Q 2709 3584 3137 3096 
Q 3566 2609 3566 1747 
Q 3566 888 3137 398 
Q 2709 -91 1959 -91 
Q 1206 -91 779 398 
Q 353 888 353 1747 
Q 353 2609 779 3096 
Q 1206 3584 1959 3584 
z
" transform="scale(0.015625)"/>
      <path id="DejaVuSans-69" d="M 603 3500 
L 1178 3500 
L 1178 0 
L 603 0 
L 603 3500 
z
M 603 4863 
L 1178 4863 
L 1178 4134 
L 603 4134 
L 603 4863 
z
" transform="scale(0.015625)"/>
      <path id="DejaVuSans-6e" d="M 3513 2113 
L 3513 0 
L 2938 0 
L 2938 2094 
Q 2938 2591 2744 2837 
Q 2550 3084 2163 3084 
Q 1697 3084 1428 2787 
Q 1159 2491 1159 1978 
L 1159 0 
L 581 0 
L 581 3500 
L 1159 3500 
L 1159 2956 
Q 1366 3272 1645 3428 
Q 1925 3584 2291 3584 
Q 2894 3584 3203 3211 
Q 3513 2838 3513 2113 
z
" transform="scale(0.015625)"/>
      <path id="DejaVuSans-73" d="M 2834 3397 
L 2834 2853 
Q 2591 2978 2328 3040 
Q 2066 3103 1784 3103 
Q 1356 3103 1142 2972 
Q 928 2841 928 2578 
Q 928 2378 1081 2264 
Q 1234 2150 1697 2047 
L 1894 2003 
Q 2506 1872 2764 1633 
Q 3022 1394 3022 966 
Q 3022 478 2636 193 
Q 2250 -91 1575 -91 
Q 1294 -91 989 -36 
Q 684 19 347 128 
L 347 722 
Q 666 556 975 473 
Q 1284 391 1588 391 
Q 1994 391 2212 530 
Q 2431 669 2431 922 
Q 2431 1156 2273 1281 
Q 2116 1406 1581 1522 
L 1381 1569 
Q 847 1681 609 1914 
Q 372 2147 372 2553 
Q 372 3047 722 3315 
Q 1072 3584 1716 3584 
Q 2034 3584 2315 3537 
Q 2597 3491 2834 3397 
z
" transform="scale(0.015625)"/>
     </defs>
     <use xlink:href="#DejaVuSans-53"/>
     <use xlink:href="#DejaVuSans-65" transform="translate(63.476562 0)"/>
     <use xlink:href="#DejaVuSans-74" transform="translate(125 0)"/>
     <use xlink:href="#DejaVuSans-50" transform="translate(164.208984 0)"/>
     <use xlink:href="#DejaVuSans-6f" transform="translate(220.886719 0)"/>
     <use xlink:href="#DejaVuSans-69" transform="translate(282.068359 0)"/>
     <use xlink:href="#DejaVuSans-6e" transform="translate(309.851562 0)"/>
     <use xlink:href="#DejaVuSans-74" transform="translate(373.230469 0)"/>
     <use xlink:href="#DejaVuSans-73" transform="translate(412.439453 0)"/>
    </g>
   </g>
  </g>
 </g>
 <defs>
  <clipPath id="pfa9450458d">
   <rect x="7.2" y="20.798438" width="446.4" height="439.553683"/>
  </clipPath>
 </defs>
</svg>
