<?xml version="1.0" encoding="utf-8" standalone="no"?>
<!DOCTYPE svg PUBLIC "-//W3C//DTD SVG 1.1//EN"
  "http://www.w3.org/Graphics/SVG/1.1/DTD/svg11.dtd">
<svg xmlns:xlink="http://www.w3.org/1999/xlink" width="457.67499pt" height="471.518438pt" viewBox="0 0 457.67499 471.518438" xmlns="http://www.w3.org/2000/svg" version="1.1">
 <metadata>
  <rdf:RDF xmlns:dc="http://purl.org/dc/elements/1.1/" xmlns:cc="http://creativecommons.org/ns#" xmlns:rdf="http://www.w3.org/1999/02/22-rdf-syntax-ns#">
   <cc:Work>
    <dc:type rdf:resource="http://purl.org/dc/dcmitype/StillImage"/>
    <dc:date>2026-05-25T00:54:20.855786</dc:date>
    <dc:format>image/svg+xml</dc:format>
    <dc:creator>
     <cc:Agent>
      <dc:title>Matplotlib v3.10.9, https://matplotlib.org/</dc:title>
     </cc:Agent>
    </dc:creator>
   </cc:Work>
  </rdf:RDF>
 </metadata>
 <defs>
  <style type="text/css">*{stroke-linejoin: round; stroke-linecap: butt}</style>
 </defs>
 <g id="figure_1">
  <g id="patch_1">
   <path d="M 0 471.518438 
L 457.67499 471.518438 
L 457.67499 0 
L 0 0 
z
" style="fill: #ffffff"/>
  </g>
  <g id="axes_1">
   <g id="PathCollection_1">
    <defs>
     <path id="C0_0_5e1651ab81" d="M 0 1.414214 
C 0.375054 1.414214 0.734797 1.265203 1 1 
C 1.265203 0.734797 1.414214 0.375054 1.414214 -0 
C 1.414214 -0.375054 1.265203 -0.734797 1 -1 
C 0.734797 -1.265203 0.375054 -1.414214 0 -1.414214 
C -0.375054 -1.414214 -0.734797 -1.265203 -1 -1 
C -1.265203 -0.734797 -1.414214 -0.375054 -1.414214 0 
C -1.414214 0.375054 -1.265203 0.734797 -1 1 
C -0.734797 1.265203 -0.375054 1.414214 0 1.414214 
z
"/>
    </defs>
    <g clip-path="url(#p431247e239)">
     <use xlink:href="#C0_0_5e1651ab81" x="264.223577" y="441.051231" style="fill: #4a6fa5"/>
    </g>
    <g clip-path="url(#p431247e239)">
     <use xlink:href="#C0_0_5e1651ab81" x="243.764192" y="41.474149" style="fill: #4a6fa5"/>
    </g>
    <g clip-path="url(#p431247e239)">
     <use xlink:href="#C0_0_5e1651ab81" x="83.434639" y="103.010073" style="fill: #4a6fa5"/>
    </g>
    <g clip-path="url(#p431247e239)">
     <use xlink:href="#C0_0_5e1651ab81" x="106.195302" y="402.470588" style="fill: #4a6fa5"/>
    </g>
    <g clip-path="url(#p431247e239)">
     <use xlink:href="#C0_0_5e1651ab81" x="78.357058" y="108.506412" style="fill: #4a6fa5"/>
    </g>
    <g clip-path="url(#p431247e239)">
     <use xlink:href="#C0_0_5e1651ab81" x="325.088383" y="65.320757" style="fill: #4a6fa5"/>
    </g>
    <g clip-path="url(#p431247e239)">
     <use xlink:href="#C0_0_5e1651ab81" x="422.365197" y="185.58939" style="fill: #4a6fa5"/>
    </g>
    <g clip-path="url(#p431247e239)">
     <use xlink:href="#C0_0_5e1651ab81" x="295.78052" y="52.324178" style="fill: #4a6fa5"/>
    </g>
    <g clip-path="url(#p431247e239)">
     <use xlink:href="#C0_0_5e1651ab81" x="27.623846" y="253.073669" style="fill: #4a6fa5"/>
    </g>
    <g clip-path="url(#p431247e239)">
     <use xlink:href="#C0_0_5e1651ab81" x="358.986451" y="396.629334" style="fill: #4a6fa5"/>
    </g>
    <g clip-path="url(#p431247e239)">
     <use xlink:href="#C0_0_5e1651ab81" x="410.154415" y="330.963504" style="fill: #4a6fa5"/>
    </g>
    <g clip-path="url(#p431247e239)">
     <use xlink:href="#C0_0_5e1651ab81" x="426.312506" y="201.295724" style="fill: #4a6fa5"/>
    </g>
    <g clip-path="url(#p431247e239)">
     <use xlink:href="#C0_0_5e1651ab81" x="287.742757" y="435.399808" style="fill: #4a6fa5"/>
    </g>
    <g clip-path="url(#p431247e239)">
     <use xlink:href="#C0_0_5e1651ab81" x="120.302339" y="72.717452" style="fill: #4a6fa5"/>
    </g>
    <g clip-path="url(#p431247e239)">
     <use xlink:href="#C0_0_5e1651ab81" x="412.361983" y="326.288534" style="fill: #4a6fa5"/>
    </g>
    <g clip-path="url(#p431247e239)">
     <use xlink:href="#C0_0_5e1651ab81" x="388.000046" y="118.627036" style="fill: #4a6fa5"/>
    </g>
    <g clip-path="url(#p431247e239)">
     <use xlink:href="#C0_0_5e1651ab81" x="214.342108" y="443.627729" style="fill: #4a6fa5"/>
    </g>
    <g clip-path="url(#p431247e239)">
     <use xlink:href="#C0_0_5e1651ab81" x="419.125001" y="175.561581" style="fill: #4a6fa5"/>
    </g>
    <g clip-path="url(#p431247e239)">
     <use xlink:href="#C0_0_5e1651ab81" x="51.116724" y="147.575812" style="fill: #4a6fa5"/>
    </g>
    <g clip-path="url(#p431247e239)">
     <use xlink:href="#C0_0_5e1651ab81" x="367.37487" y="95.94817" style="fill: #4a6fa5"/>
    </g>
    <g clip-path="url(#p431247e239)">
     <use xlink:href="#C0_0_5e1651ab81" x="175.592232" y="48.122464" style="fill: #4a6fa5"/>
    </g>
    <g clip-path="url(#p431247e239)">
     <use xlink:href="#C0_0_5e1651ab81" x="123.021734" y="71.007874" style="fill: #4a6fa5"/>
    </g>
    <g clip-path="url(#p431247e239)">
     <use xlink:href="#C0_0_5e1651ab81" x="263.211982" y="43.860415" style="fill: #4a6fa5"/>
    </g>
    <g clip-path="url(#p431247e239)">
     <use xlink:href="#C0_0_5e1651ab81" x="130.720322" y="66.485582" style="fill: #4a6fa5"/>
    </g>
    <g clip-path="url(#p431247e239)">
     <use xlink:href="#C0_0_5e1651ab81" x="417.226257" y="314.69157" style="fill: #4a6fa5"/>
    </g>
    <g clip-path="url(#p431247e239)">
     <use xlink:href="#C0_0_5e1651ab81" x="234.432686" y="444.084361" style="fill: #4a6fa5"/>
    </g>
    <g clip-path="url(#p431247e239)">
     <use xlink:href="#C0_0_5e1651ab81" x="343.977002" y="76.95429" style="fill: #4a6fa5"/>
    </g>
    <g clip-path="url(#p431247e239)">
     <use xlink:href="#C0_0_5e1651ab81" x="99.006918" y="88.402424" style="fill: #4a6fa5"/>
    </g>
    <g clip-path="url(#p431247e239)">
     <use xlink:href="#C0_0_5e1651ab81" x="78.771296" y="377.046264" style="fill: #4a6fa5"/>
    </g>
    <g clip-path="url(#p431247e239)">
     <use xlink:href="#C0_0_5e1651ab81" x="56.894468" y="347.619258" style="fill: #4a6fa5"/>
    </g>
    <g clip-path="url(#p431247e239)">
     <use xlink:href="#C0_0_5e1651ab81" x="29.897167" y="210.589439" style="fill: #4a6fa5"/>
    </g>
    <g clip-path="url(#p431247e239)">
     <use xlink:href="#C0_0_5e1651ab81" x="427.492584" y="207.412017" style="fill: #4a6fa5"/>
    </g>
    <g clip-path="url(#p431247e239)">
     <use xlink:href="#C0_0_5e1651ab81" x="280.171785" y="47.541896" style="fill: #4a6fa5"/>
    </g>
    <g clip-path="url(#p431247e239)">
     <use xlink:href="#C0_0_5e1651ab81" x="27.468732" y="235.588662" style="fill: #4a6fa5"/>
    </g>
    <g clip-path="url(#p431247e239)">
     <use xlink:href="#C0_0_5e1651ab81" x="60.762014" y="353.705241" style="fill: #4a6fa5"/>
    </g>
    <g clip-path="url(#p431247e239)">
     <use xlink:href="#C0_0_5e1651ab81" x="378.284376" y="107.07697" style="fill: #4a6fa5"/>
    </g>
    <g clip-path="url(#p431247e239)">
     <use xlink:href="#C0_0_5e1651ab81" x="405.194384" y="144.611824" style="fill: #4a6fa5"/>
    </g>
    <g clip-path="url(#p431247e239)">
     <use xlink:href="#C0_0_5e1651ab81" x="322.231327" y="421.28803" style="fill: #4a6fa5"/>
    </g>
    <g clip-path="url(#p431247e239)">
     <use xlink:href="#C0_0_5e1651ab81" x="34.15364" y="190.605583" style="fill: #4a6fa5"/>
    </g>
    <g clip-path="url(#p431247e239)">
     <use xlink:href="#C0_0_5e1651ab81" x="128.366135" y="417.268638" style="fill: #4a6fa5"/>
    </g>
    <g clip-path="url(#p431247e239)">
     <use xlink:href="#C0_0_5e1651ab81" x="79.273904" y="377.605401" style="fill: #4a6fa5"/>
    </g>
    <g clip-path="url(#p431247e239)">
     <use xlink:href="#C0_0_5e1651ab81" x="278.935459" y="437.867267" style="fill: #4a6fa5"/>
    </g>
    <g clip-path="url(#p431247e239)">
     <use xlink:href="#C0_0_5e1651ab81" x="231.77837" y="444.138912" style="fill: #4a6fa5"/>
    </g>
    <g clip-path="url(#p431247e239)">
     <use xlink:href="#C0_0_5e1651ab81" x="355.631096" y="85.689383" style="fill: #4a6fa5"/>
    </g>
    <g clip-path="url(#p431247e239)">
     <use xlink:href="#C0_0_5e1651ab81" x="40.932368" y="169.792697" style="fill: #4a6fa5"/>
    </g>
    <g clip-path="url(#p431247e239)">
     <use xlink:href="#C0_0_5e1651ab81" x="49.693442" y="150.290641" style="fill: #4a6fa5"/>
    </g>
    <g clip-path="url(#p431247e239)">
     <use xlink:href="#C0_0_5e1651ab81" x="239.569367" y="41.209289" style="fill: #4a6fa5"/>
    </g>
    <g clip-path="url(#p431247e239)">
     <use xlink:href="#C0_0_5e1651ab81" x="337.285324" y="412.587158" style="fill: #4a6fa5"/>
    </g>
    <g clip-path="url(#p431247e239)">
     <use xlink:href="#C0_0_5e1651ab81" x="425.908136" y="285.682366" style="fill: #4a6fa5"/>
    </g>
    <g clip-path="url(#p431247e239)">
     <use xlink:href="#C0_0_5e1651ab81" x="33.646756" y="192.545483" style="fill: #4a6fa5"/>
    </g>
    <g clip-path="url(#p431247e239)">
     <use xlink:href="#C0_0_5e1651ab81" x="225.58319" y="40.958438" style="fill: #4a6fa5"/>
    </g>
    <g clip-path="url(#p431247e239)">
     <use xlink:href="#C0_0_5e1651ab81" x="149.942987" y="57.060795" style="fill: #4a6fa5"/>
    </g>
    <g clip-path="url(#p431247e239)">
     <use xlink:href="#C0_0_5e1651ab81" x="67.385911" y="363.131078" style="fill: #4a6fa5"/>
    </g>
    <g clip-path="url(#p431247e239)">
     <use xlink:href="#C0_0_5e1651ab81" x="416.519118" y="168.578268" style="fill: #4a6fa5"/>
    </g>
    <g clip-path="url(#p431247e239)">
     <use xlink:href="#C0_0_5e1651ab81" x="353.820435" y="400.844386" style="fill: #4a6fa5"/>
    </g>
    <g clip-path="url(#p431247e239)">
     <use xlink:href="#C0_0_5e1651ab81" x="206.072229" y="442.854882" style="fill: #4a6fa5"/>
    </g>
    <g clip-path="url(#p431247e239)">
     <use xlink:href="#C0_0_5e1651ab81" x="49.93927" y="335.274179" style="fill: #4a6fa5"/>
    </g>
    <g clip-path="url(#p431247e239)">
     <use xlink:href="#C0_0_5e1651ab81" x="194.273088" y="441.151772" style="fill: #4a6fa5"/>
    </g>
    <g clip-path="url(#p431247e239)">
     <use xlink:href="#C0_0_5e1651ab81" x="339.902733" y="410.891187" style="fill: #4a6fa5"/>
    </g>
    <g clip-path="url(#p431247e239)">
     <use xlink:href="#C0_0_5e1651ab81" x="39.193325" y="174.457697" style="fill: #4a6fa5"/>
    </g>
    <g clip-path="url(#p431247e239)">
     <use xlink:href="#C0_0_5e1651ab81" x="173.945758" y="48.581951" style="fill: #4a6fa5"/>
    </g>
    <g clip-path="url(#p431247e239)">
     <use xlink:href="#C0_0_5e1651ab81" x="410.528502" y="154.895916" style="fill: #4a6fa5"/>
    </g>
    <g clip-path="url(#p431247e239)">
     <use xlink:href="#C0_0_5e1651ab81" x="39.285662" y="310.887793" style="fill: #4a6fa5"/>
    </g>
    <g clip-path="url(#p431247e239)">
     <use xlink:href="#C0_0_5e1651ab81" x="306.43715" y="428.678822" style="fill: #4a6fa5"/>
    </g>
    <g clip-path="url(#p431247e239)">
     <use xlink:href="#C0_0_5e1651ab81" x="367.26135" y="95.84107" style="fill: #4a6fa5"/>
    </g>
    <g clip-path="url(#p431247e239)">
     <use xlink:href="#C0_0_5e1651ab81" x="108.369437" y="404.11632" style="fill: #4a6fa5"/>
    </g>
    <g clip-path="url(#p431247e239)">
     <use xlink:href="#C0_0_5e1651ab81" x="430.326127" y="232.486189" style="fill: #4a6fa5"/>
    </g>
    <g clip-path="url(#p431247e239)">
     <use xlink:href="#C0_0_5e1651ab81" x="240.473888" y="41.258978" style="fill: #4a6fa5"/>
    </g>
    <g clip-path="url(#p431247e239)">
     <use xlink:href="#C0_0_5e1651ab81" x="334.822184" y="414.1314" style="fill: #4a6fa5"/>
    </g>
    <g clip-path="url(#p431247e239)">
     <use xlink:href="#C0_0_5e1651ab81" x="395.201894" y="128.470198" style="fill: #4a6fa5"/>
    </g>
    <g clip-path="url(#p431247e239)">
     <use xlink:href="#C0_0_5e1651ab81" x="179.9307" y="46.983255" style="fill: #4a6fa5"/>
    </g>
    <g clip-path="url(#p431247e239)">
     <use xlink:href="#C0_0_5e1651ab81" x="218.436828" y="41.205075" style="fill: #4a6fa5"/>
    </g>
    <g clip-path="url(#p431247e239)">
     <use xlink:href="#C0_0_5e1651ab81" x="418.536287" y="173.913111" style="fill: #4a6fa5"/>
    </g>
    <g clip-path="url(#p431247e239)">
     <use xlink:href="#C0_0_5e1651ab81" x="29.305688" y="214.521502" style="fill: #4a6fa5"/>
    </g>
    <g clip-path="url(#p431247e239)">
     <use xlink:href="#C0_0_5e1651ab81" x="71.667289" y="368.664821" style="fill: #4a6fa5"/>
    </g>
    <g clip-path="url(#p431247e239)">
     <use xlink:href="#C0_0_5e1651ab81" x="393.161882" y="359.535821" style="fill: #4a6fa5"/>
    </g>
    <g clip-path="url(#p431247e239)">
     <use xlink:href="#C0_0_5e1651ab81" x="153.342689" y="55.648979" style="fill: #4a6fa5"/>
    </g>
    <g clip-path="url(#p431247e239)">
     <use xlink:href="#C0_0_5e1651ab81" x="27.625925" y="253.113351" style="fill: #4a6fa5"/>
    </g>
    <g clip-path="url(#p431247e239)">
     <use xlink:href="#C0_0_5e1651ab81" x="228.730923" y="444.158437" style="fill: #4a6fa5"/>
    </g>
    <g clip-path="url(#p431247e239)">
     <use xlink:href="#C0_0_5e1651ab81" x="425.861473" y="285.894855" style="fill: #4a6fa5"/>
    </g>
    <g clip-path="url(#p431247e239)">
     <use xlink:href="#C0_0_5e1651ab81" x="294.435197" y="433.231734" style="fill: #4a6fa5"/>
    </g>
    <g clip-path="url(#p431247e239)">
     <use xlink:href="#C0_0_5e1651ab81" x="208.42856" y="443.110133" style="fill: #4a6fa5"/>
    </g>
    <g clip-path="url(#p431247e239)">
     <use xlink:href="#C0_0_5e1651ab81" x="153.897948" y="55.425272" style="fill: #4a6fa5"/>
    </g>
    <g clip-path="url(#p431247e239)">
     <use xlink:href="#C0_0_5e1651ab81" x="386.886421" y="117.21089" style="fill: #4a6fa5"/>
    </g>
    <g clip-path="url(#p431247e239)">
     <use xlink:href="#C0_0_5e1651ab81" x="284.275841" y="436.422604" style="fill: #4a6fa5"/>
    </g>
    <g clip-path="url(#p431247e239)">
     <use xlink:href="#C0_0_5e1651ab81" x="47.143143" y="155.424542" style="fill: #4a6fa5"/>
    </g>
    <g clip-path="url(#p431247e239)">
     <use xlink:href="#C0_0_5e1651ab81" x="420.169851" y="178.605177" style="fill: #4a6fa5"/>
    </g>
    <g clip-path="url(#p431247e239)">
     <use xlink:href="#C0_0_5e1651ab81" x="374.559594" y="103.081392" style="fill: #4a6fa5"/>
    </g>
    <g clip-path="url(#p431247e239)">
     <use xlink:href="#C0_0_5e1651ab81" x="395.027668" y="128.216716" style="fill: #4a6fa5"/>
    </g>
    <g clip-path="url(#p431247e239)">
     <use xlink:href="#C0_0_5e1651ab81" x="77.616706" y="109.34293" style="fill: #4a6fa5"/>
    </g>
    <g clip-path="url(#p431247e239)">
     <use xlink:href="#C0_0_5e1651ab81" x="123.488684" y="414.368317" style="fill: #4a6fa5"/>
    </g>
    <g clip-path="url(#p431247e239)">
     <use xlink:href="#C0_0_5e1651ab81" x="248.337883" y="443.225455" style="fill: #4a6fa5"/>
    </g>
    <g clip-path="url(#p431247e239)">
     <use xlink:href="#C0_0_5e1651ab81" x="28.235205" y="223.65853" style="fill: #4a6fa5"/>
    </g>
    <g clip-path="url(#p431247e239)">
     <use xlink:href="#C0_0_5e1651ab81" x="92.1006" y="390.588244" style="fill: #4a6fa5"/>
    </g>
    <g clip-path="url(#p431247e239)">
     <use xlink:href="#C0_0_5e1651ab81" x="305.538975" y="56.038549" style="fill: #4a6fa5"/>
    </g>
    <g clip-path="url(#p431247e239)">
     <use xlink:href="#C0_0_5e1651ab81" x="356.226711" y="86.172245" style="fill: #4a6fa5"/>
    </g>
    <g clip-path="url(#p431247e239)">
     <use xlink:href="#C0_0_5e1651ab81" x="44.489678" y="161.193781" style="fill: #4a6fa5"/>
    </g>
    <g clip-path="url(#p431247e239)">
     <use xlink:href="#C0_0_5e1651ab81" x="225.298512" y="444.125267" style="fill: #4a6fa5"/>
    </g>
    <g clip-path="url(#p431247e239)">
     <use xlink:href="#C0_0_5e1651ab81" x="104.108084" y="400.846464" style="fill: #4a6fa5"/>
    </g>
    <g clip-path="url(#p431247e239)">
     <use xlink:href="#C0_0_5e1651ab81" x="133.442245" y="420.094599" style="fill: #4a6fa5"/>
    </g>
    <g clip-path="url(#p431247e239)">
     <use xlink:href="#C0_0_5e1651ab81" x="394.837917" y="127.941585" style="fill: #4a6fa5"/>
    </g>
    <g clip-path="url(#p431247e239)">
     <use xlink:href="#C0_0_5e1651ab81" x="382.051352" y="111.348922" style="fill: #4a6fa5"/>
    </g>
    <g clip-path="url(#p431247e239)">
     <use xlink:href="#C0_0_5e1651ab81" x="271.780261" y="45.529173" style="fill: #4a6fa5"/>
    </g>
    <g clip-path="url(#p431247e239)">
     <use xlink:href="#C0_0_5e1651ab81" x="412.714515" y="325.512152" style="fill: #4a6fa5"/>
    </g>
    <g clip-path="url(#p431247e239)">
     <use xlink:href="#C0_0_5e1651ab81" x="88.392158" y="98.016996" style="fill: #4a6fa5"/>
    </g>
    <g clip-path="url(#p431247e239)">
     <use xlink:href="#C0_0_5e1651ab81" x="71.387259" y="368.314774" style="fill: #4a6fa5"/>
    </g>
    <g clip-path="url(#p431247e239)">
     <use xlink:href="#C0_0_5e1651ab81" x="397.880728" y="352.612865" style="fill: #4a6fa5"/>
    </g>
    <g clip-path="url(#p431247e239)">
     <use xlink:href="#C0_0_5e1651ab81" x="424.423662" y="291.975154" style="fill: #4a6fa5"/>
    </g>
    <g clip-path="url(#p431247e239)">
     <use xlink:href="#C0_0_5e1651ab81" x="425.767209" y="198.767872" style="fill: #4a6fa5"/>
    </g>
    <g clip-path="url(#p431247e239)">
     <use xlink:href="#C0_0_5e1651ab81" x="316.343492" y="424.238968" style="fill: #4a6fa5"/>
    </g>
    <g clip-path="url(#p431247e239)">
     <use xlink:href="#C0_0_5e1651ab81" x="117.690924" y="410.67178" style="fill: #4a6fa5"/>
    </g>
    <g clip-path="url(#p431247e239)">
     <use xlink:href="#C0_0_5e1651ab81" x="429.184523" y="218.888108" style="fill: #4a6fa5"/>
    </g>
    <g clip-path="url(#p431247e239)">
     <use xlink:href="#C0_0_5e1651ab81" x="381.934128" y="373.876418" style="fill: #4a6fa5"/>
    </g>
    <g clip-path="url(#p431247e239)">
     <use xlink:href="#C0_0_5e1651ab81" x="385.45916" y="115.433237" style="fill: #4a6fa5"/>
    </g>
    <g clip-path="url(#p431247e239)">
     <use xlink:href="#C0_0_5e1651ab81" x="149.602073" y="57.206402" style="fill: #4a6fa5"/>
    </g>
    <g clip-path="url(#p431247e239)">
     <use xlink:href="#C0_0_5e1651ab81" x="429.420784" y="264.107087" style="fill: #4a6fa5"/>
    </g>
    <g clip-path="url(#p431247e239)">
     <use xlink:href="#C0_0_5e1651ab81" x="367.207528" y="95.790351" style="fill: #4a6fa5"/>
    </g>
    <g clip-path="url(#p431247e239)">
     <use xlink:href="#C0_0_5e1651ab81" x="377.660772" y="106.392755" style="fill: #4a6fa5"/>
    </g>
    <g clip-path="url(#p431247e239)">
     <use xlink:href="#C0_0_5e1651ab81" x="430.01671" y="227.521655" style="fill: #4a6fa5"/>
    </g>
    <g clip-path="url(#p431247e239)">
     <use xlink:href="#C0_0_5e1651ab81" x="35.655955" y="299.821796" style="fill: #4a6fa5"/>
    </g>
    <g clip-path="url(#p431247e239)">
     <use xlink:href="#C0_0_5e1651ab81" x="407.051918" y="337.056853" style="fill: #4a6fa5"/>
    </g>
    <g clip-path="url(#p431247e239)">
     <use xlink:href="#C0_0_5e1651ab81" x="429.746054" y="224.256621" style="fill: #4a6fa5"/>
    </g>
    <g clip-path="url(#p431247e239)">
     <use xlink:href="#C0_0_5e1651ab81" x="116.902012" y="410.146983" style="fill: #4a6fa5"/>
    </g>
    <g clip-path="url(#p431247e239)">
     <use xlink:href="#C0_0_5e1651ab81" x="27.491255" y="250.124421" style="fill: #4a6fa5"/>
    </g>
    <g clip-path="url(#p431247e239)">
     <use xlink:href="#C0_0_5e1651ab81" x="213.197379" y="443.541218" style="fill: #4a6fa5"/>
    </g>
    <g clip-path="url(#p431247e239)">
     <use xlink:href="#C0_0_5e1651ab81" x="293.969678" y="51.697744" style="fill: #4a6fa5"/>
    </g>
    <g clip-path="url(#p431247e239)">
     <use xlink:href="#C0_0_5e1651ab81" x="61.484703" y="130.297568" style="fill: #4a6fa5"/>
    </g>
    <g clip-path="url(#p431247e239)">
     <use xlink:href="#C0_0_5e1651ab81" x="126.162751" y="69.107264" style="fill: #4a6fa5"/>
    </g>
    <g clip-path="url(#p431247e239)">
     <use xlink:href="#C0_0_5e1651ab81" x="32.238266" y="286.677095" style="fill: #4a6fa5"/>
    </g>
    <g clip-path="url(#p431247e239)">
     <use xlink:href="#C0_0_5e1651ab81" x="397.970453" y="132.613634" style="fill: #4a6fa5"/>
    </g>
    <g clip-path="url(#p431247e239)">
     <use xlink:href="#C0_0_5e1651ab81" x="179.131734" y="47.185313" style="fill: #4a6fa5"/>
    </g>
    <g clip-path="url(#p431247e239)">
     <use xlink:href="#C0_0_5e1651ab81" x="332.87596" y="69.771705" style="fill: #4a6fa5"/>
    </g>
    <g clip-path="url(#p431247e239)">
     <use xlink:href="#C0_0_5e1651ab81" x="367.091735" y="95.681358" style="fill: #4a6fa5"/>
    </g>
    <g clip-path="url(#p431247e239)">
     <use xlink:href="#C0_0_5e1651ab81" x="81.891055" y="380.450678" style="fill: #4a6fa5"/>
    </g>
    <g clip-path="url(#p431247e239)">
     <use xlink:href="#C0_0_5e1651ab81" x="404.488629" y="341.736233" style="fill: #4a6fa5"/>
    </g>
    <g clip-path="url(#p431247e239)">
     <use xlink:href="#C0_0_5e1651ab81" x="36.387708" y="182.852819" style="fill: #4a6fa5"/>
    </g>
    <g clip-path="url(#p431247e239)">
     <use xlink:href="#C0_0_5e1651ab81" x="32.635538" y="288.412072" style="fill: #4a6fa5"/>
    </g>
    <g clip-path="url(#p431247e239)">
     <use xlink:href="#C0_0_5e1651ab81" x="49.492704" y="334.406911" style="fill: #4a6fa5"/>
    </g>
    <g clip-path="url(#p431247e239)">
     <use xlink:href="#C0_0_5e1651ab81" x="294.776992" y="433.114036" style="fill: #4a6fa5"/>
    </g>
    <g clip-path="url(#p431247e239)">
     <use xlink:href="#C0_0_5e1651ab81" x="188.524048" y="440.061413" style="fill: #4a6fa5"/>
    </g>
    <g clip-path="url(#p431247e239)">
     <use xlink:href="#C0_0_5e1651ab81" x="70.658159" y="117.692851" style="fill: #4a6fa5"/>
    </g>
    <g clip-path="url(#p431247e239)">
     <use xlink:href="#C0_0_5e1651ab81" x="424.566996" y="291.404883" style="fill: #4a6fa5"/>
    </g>
    <g clip-path="url(#p431247e239)">
     <use xlink:href="#C0_0_5e1651ab81" x="417.725432" y="171.713407" style="fill: #4a6fa5"/>
    </g>
    <g clip-path="url(#p431247e239)">
     <use xlink:href="#C0_0_5e1651ab81" x="401.998419" y="139.069597" style="fill: #4a6fa5"/>
    </g>
    <g clip-path="url(#p431247e239)">
     <use xlink:href="#C0_0_5e1651ab81" x="133.09212" y="419.905789" style="fill: #4a6fa5"/>
    </g>
    <g clip-path="url(#p431247e239)">
     <use xlink:href="#C0_0_5e1651ab81" x="27.471172" y="235.518319" style="fill: #4a6fa5"/>
    </g>
    <g clip-path="url(#p431247e239)">
     <use xlink:href="#C0_0_5e1651ab81" x="29.877747" y="274.378023" style="fill: #4a6fa5"/>
    </g>
    <g clip-path="url(#p431247e239)">
     <use xlink:href="#C0_0_5e1651ab81" x="224.336767" y="444.105489" style="fill: #4a6fa5"/>
    </g>
    <g clip-path="url(#p431247e239)">
     <use xlink:href="#C0_0_5e1651ab81" x="40.295782" y="171.459874" style="fill: #4a6fa5"/>
    </g>
    <g clip-path="url(#p431247e239)">
     <use xlink:href="#C0_0_5e1651ab81" x="408.315686" y="150.452581" style="fill: #4a6fa5"/>
    </g>
    <g clip-path="url(#p431247e239)">
     <use xlink:href="#C0_0_5e1651ab81" x="72.81029" y="115.011411" style="fill: #4a6fa5"/>
    </g>
    <g clip-path="url(#p431247e239)">
     <use xlink:href="#C0_0_5e1651ab81" x="213.380069" y="41.533214" style="fill: #4a6fa5"/>
    </g>
    <g clip-path="url(#p431247e239)">
     <use xlink:href="#C0_0_5e1651ab81" x="212.534381" y="41.600564" style="fill: #4a6fa5"/>
    </g>
    <g clip-path="url(#p431247e239)">
     <use xlink:href="#C0_0_5e1651ab81" x="112.59128" y="77.905538" style="fill: #4a6fa5"/>
    </g>
    <g clip-path="url(#p431247e239)">
     <use xlink:href="#C0_0_5e1651ab81" x="422.912249" y="187.481058" style="fill: #4a6fa5"/>
    </g>
    <g clip-path="url(#p431247e239)">
     <use xlink:href="#C0_0_5e1651ab81" x="397.209107" y="131.451915" style="fill: #4a6fa5"/>
    </g>
    <g clip-path="url(#p431247e239)">
     <use xlink:href="#C0_0_5e1651ab81" x="40.684252" y="170.437245" style="fill: #4a6fa5"/>
    </g>
    <g clip-path="url(#p431247e239)">
     <use xlink:href="#C0_0_5e1651ab81" x="65.610389" y="124.373946" style="fill: #4a6fa5"/>
    </g>
    <g clip-path="url(#p431247e239)">
     <use xlink:href="#C0_0_5e1651ab81" x="109.776371" y="79.931733" style="fill: #4a6fa5"/>
    </g>
    <g clip-path="url(#p431247e239)">
     <use xlink:href="#C0_0_5e1651ab81" x="177.918446" y="47.498811" style="fill: #4a6fa5"/>
    </g>
    <g clip-path="url(#p431247e239)">
     <use xlink:href="#C0_0_5e1651ab81" x="153.77481" y="55.474718" style="fill: #4a6fa5"/>
    </g>
    <g clip-path="url(#p431247e239)">
     <use xlink:href="#C0_0_5e1651ab81" x="29.401471" y="213.847344" style="fill: #4a6fa5"/>
    </g>
    <g clip-path="url(#p431247e239)">
     <use xlink:href="#C0_0_5e1651ab81" x="71.913068" y="116.117936" style="fill: #4a6fa5"/>
    </g>
    <g clip-path="url(#p431247e239)">
     <use xlink:href="#C0_0_5e1651ab81" x="388.842495" y="119.715893" style="fill: #4a6fa5"/>
    </g>
    <g clip-path="url(#p431247e239)">
     <use xlink:href="#C0_0_5e1651ab81" x="136.866389" y="421.89462" style="fill: #4a6fa5"/>
    </g>
    <g clip-path="url(#p431247e239)">
     <use xlink:href="#C0_0_5e1651ab81" x="163.842438" y="433.352144" style="fill: #4a6fa5"/>
    </g>
    <g clip-path="url(#p431247e239)">
     <use xlink:href="#C0_0_5e1651ab81" x="420.305656" y="179.012737" style="fill: #4a6fa5"/>
    </g>
    <g clip-path="url(#p431247e239)">
     <use xlink:href="#C0_0_5e1651ab81" x="304.891951" y="429.314476" style="fill: #4a6fa5"/>
    </g>
    <g clip-path="url(#p431247e239)">
     <use xlink:href="#C0_0_5e1651ab81" x="85.807189" y="384.51169" style="fill: #4a6fa5"/>
    </g>
    <g clip-path="url(#p431247e239)">
     <use xlink:href="#C0_0_5e1651ab81" x="364.105528" y="92.928898" style="fill: #4a6fa5"/>
    </g>
    <g clip-path="url(#p431247e239)">
     <use xlink:href="#C0_0_5e1651ab81" x="53.927248" y="142.490333" style="fill: #4a6fa5"/>
    </g>
    <g clip-path="url(#p431247e239)">
     <use xlink:href="#C0_0_5e1651ab81" x="376.622964" y="379.820763" style="fill: #4a6fa5"/>
    </g>
    <g clip-path="url(#p431247e239)">
     <use xlink:href="#C0_0_5e1651ab81" x="74.925805" y="112.464138" style="fill: #4a6fa5"/>
    </g>
    <g clip-path="url(#p431247e239)">
     <use xlink:href="#C0_0_5e1651ab81" x="47.283005" y="329.955431" style="fill: #4a6fa5"/>
    </g>
    <g clip-path="url(#p431247e239)">
     <use xlink:href="#C0_0_5e1651ab81" x="205.912825" y="442.836602" style="fill: #4a6fa5"/>
    </g>
    <g clip-path="url(#p431247e239)">
     <use xlink:href="#C0_0_5e1651ab81" x="144.462523" y="425.596183" style="fill: #4a6fa5"/>
    </g>
    <g clip-path="url(#p431247e239)">
     <use xlink:href="#C0_0_5e1651ab81" x="27.348863" y="242.296292" style="fill: #4a6fa5"/>
    </g>
    <g clip-path="url(#p431247e239)">
     <use xlink:href="#C0_0_5e1651ab81" x="422.414454" y="185.756919" style="fill: #4a6fa5"/>
    </g>
    <g clip-path="url(#p431247e239)">
     <use xlink:href="#C0_0_5e1651ab81" x="34.246965" y="190.256801" style="fill: #4a6fa5"/>
    </g>
    <g clip-path="url(#p431247e239)">
     <use xlink:href="#C0_0_5e1651ab81" x="414.070718" y="322.440584" style="fill: #4a6fa5"/>
    </g>
    <g clip-path="url(#p431247e239)">
     <use xlink:href="#C0_0_5e1651ab81" x="38.559948" y="308.839122" style="fill: #4a6fa5"/>
    </g>
    <g clip-path="url(#p431247e239)">
     <use xlink:href="#C0_0_5e1651ab81" x="114.19164" y="408.302738" style="fill: #4a6fa5"/>
    </g>
    <g clip-path="url(#p431247e239)">
     <use xlink:href="#C0_0_5e1651ab81" x="116.914039" y="410.155024" style="fill: #4a6fa5"/>
    </g>
    <g clip-path="url(#p431247e239)">
     <use xlink:href="#C0_0_5e1651ab81" x="191.516942" y="44.438066" style="fill: #4a6fa5"/>
    </g>
    <g clip-path="url(#p431247e239)">
     <use xlink:href="#C0_0_5e1651ab81" x="424.008984" y="191.501808" style="fill: #4a6fa5"/>
    </g>
    <g clip-path="url(#p431247e239)">
     <use xlink:href="#C0_0_5e1651ab81" x="220.259038" y="443.970605" style="fill: #4a6fa5"/>
    </g>
    <g clip-path="url(#p431247e239)">
     <use xlink:href="#C0_0_5e1651ab81" x="70.761593" y="367.526864" style="fill: #4a6fa5"/>
    </g>
    <g clip-path="url(#p431247e239)">
     <use xlink:href="#C0_0_5e1651ab81" x="193.618988" y="441.036413" style="fill: #4a6fa5"/>
    </g>
    <g clip-path="url(#p431247e239)">
     <use xlink:href="#C0_0_5e1651ab81" x="253.662372" y="42.44877" style="fill: #4a6fa5"/>
    </g>
    <g clip-path="url(#p431247e239)">
     <use xlink:href="#C0_0_5e1651ab81" x="299.350493" y="53.616069" style="fill: #4a6fa5"/>
    </g>
    <g clip-path="url(#p431247e239)">
     <use xlink:href="#C0_0_5e1651ab81" x="131.017468" y="66.3201" style="fill: #4a6fa5"/>
    </g>
    <g clip-path="url(#p431247e239)">
     <use xlink:href="#C0_0_5e1651ab81" x="251.249413" y="42.165668" style="fill: #4a6fa5"/>
    </g>
    <g clip-path="url(#p431247e239)">
     <use xlink:href="#C0_0_5e1651ab81" x="351.555892" y="402.604538" style="fill: #4a6fa5"/>
    </g>
    <g clip-path="url(#p431247e239)">
     <use xlink:href="#C0_0_5e1651ab81" x="65.60312" y="360.704683" style="fill: #4a6fa5"/>
    </g>
    <g clip-path="url(#p431247e239)">
     <use xlink:href="#C0_0_5e1651ab81" x="409.141055" y="152.078069" style="fill: #4a6fa5"/>
    </g>
    <g clip-path="url(#p431247e239)">
     <use xlink:href="#C0_0_5e1651ab81" x="380.662718" y="375.342971" style="fill: #4a6fa5"/>
    </g>
    <g clip-path="url(#p431247e239)">
     <use xlink:href="#C0_0_5e1651ab81" x="264.743938" y="44.130582" style="fill: #4a6fa5"/>
    </g>
    <g clip-path="url(#p431247e239)">
     <use xlink:href="#C0_0_5e1651ab81" x="31.866539" y="284.986138" style="fill: #4a6fa5"/>
    </g>
    <g clip-path="url(#p431247e239)">
     <use xlink:href="#C0_0_5e1651ab81" x="392.430878" y="124.533609" style="fill: #4a6fa5"/>
    </g>
    <g clip-path="url(#p431247e239)">
     <use xlink:href="#C0_0_5e1651ab81" x="34.115189" y="294.338659" style="fill: #4a6fa5"/>
    </g>
   </g>
   <g id="text_1">
    <!-- SetPoints -->
    <g transform="translate(205.610933 14.798437) scale(0.1 -0.1)">
     <defs>
      <path id="DejaVuSans-53" d="M 3425 4513 
L 3425 3897 
Q 3066 4069 2747 4153 
Q 2428 4238 2131 4238 
Q 1616 4238 1336 4038 
Q 1056 3838 1056 3469 
Q 1056 3159 1242 3001 
Q 1428 2844 1947 2747 
L 2328 2669 
Q 3034 2534 3370 2195 
Q 3706 1856 3706 1288 
Q 3706 609 3251 259 
Q 2797 -91 1919 -91 
Q 1588 -91 1214 -16 
Q 841 59 441 206 
L 441 856 
Q 825 641 1194 531 
Q 1563 422 1919 422 
Q 2459 422 2753 634 
Q 3047 847 3047 1241 
Q 3047 1584 2836 1778 
Q 2625 1972 2144 2069 
L 1759 2144 
Q 1053 2284 737 2584 
Q 422 2884 422 3419 
Q 422 4038 858 4394 
Q 1294 4750 2059 4750 
Q 2388 4750 2728 4690 
Q 3069 4631 3425 4513 
z
" transform="scale(0.015625)"/>
      <path id="DejaVuSans-65" d="M 3597 1894 
L 3597 1613 
L 953 1613 
Q 991 1019 1311 708 
Q 1631 397 2203 397 
Q 2534 397 2845 478 
Q 3156 559 3463 722 
L 3463 178 
Q 3153 47 2828 -22 
Q 2503 -91 2169 -91 
Q 1331 -91 842 396 
Q 353 884 353 1716 
Q 353 2575 817 3079 
Q 1281 3584 2069 3584 
Q 2775 3584 3186 3129 
Q 3597 2675 3597 1894 
z
M 3022 2063 
Q 3016 2534 2758 2815 
Q 2500 3097 2075 3097 
Q 1594 3097 1305 2825 
Q 1016 2553 972 2059 
L 3022 2063 
z
" transform="scale(0.015625)"/>
      <path id="DejaVuSans-74" d="M 1172 4494 
L 1172 3500 
L 2356 3500 
L 2356 3053 
L 1172 3053 
L 1172 1153 
Q 1172 725 1289 603 
Q 1406 481 1766 481 
L 2356 481 
L 2356 0 
L 1766 0 
Q 1100 0 847 248 
Q 594 497 594 1153 
L 594 3053 
L 172 3053 
L 172 3500 
L 594 3500 
L 594 4494 
L 1172 4494 
z
" transform="scale(0.015625)"/>
      <path id="DejaVuSans-50" d="M 1259 4147 
L 1259 2394 
L 2053 2394 
Q 2494 2394 2734 2622 
Q 2975 2850 2975 3272 
Q 2975 3691 2734 3919 
Q 2494 4147 2053 4147 
L 1259 4147 
z
M 628 4666 
L 2053 4666 
Q 2838 4666 3239 4311 
Q 3641 3956 3641 3272 
Q 3641 2581 3239 2228 
Q 2838 1875 2053 1875 
L 1259 1875 
L 1259 0 
L 628 0 
L 628 4666 
z
" transform="scale(0.015625)"/>
      <path id="DejaVuSans-6f" d="M 1959 3097 
Q 1497 3097 1228 2736 
Q 959 2375 959 1747 
Q 959 1119 1226 758 
Q 1494 397 1959 397 
Q 2419 397 2687 759 
Q 2956 1122 2956 1747 
Q 2956 2369 2687 2733 
Q 2419 3097 1959 3097 
z
M 1959 3584 
Q 2709 3584 3137 3096 
Q 3566 2609 3566 1747 
Q 3566 888 3137 398 
Q 2709 -91 1959 -91 
Q 1206 -91 779 398 
Q 353 888 353 1747 
Q 353 2609 779 3096 
Q 1206 3584 1959 3584 
z
" transform="scale(0.015625)"/>
      <path id="DejaVuSans-69" d="M 603 3500 
L 1178 3500 
L 1178 0 
L 603 0 
L 603 3500 
z
M 603 4863 
L 1178 4863 
L 1178 4134 
L 603 4134 
L 603 4863 
z
" transform="scale(0.015625)"/>
      <path id="DejaVuSans-6e" d="M 3513 2113 
L 3513 0 
L 2938 0 
L 2938 2094 
Q 2938 2591 2744 2837 
Q 2550 3084 2163 3084 
Q 1697 3084 1428 2787 
Q 1159 2491 1159 1978 
L 1159 0 
L 581 0 
L 581 3500 
L 1159 3500 
L 1159 2956 
Q 1366 3272 1645 3428 
Q 1925 3584 2291 3584 
Q 2894 3584 3203 3211 
Q 3513 2838 3513 2113 
z
" transform="scale(0.015625)"/>
      <path id="DejaVuSans-73" d="M 2834 3397 
L 2834 2853 
Q 2591 2978 2328 3040 
Q 2066 3103 1784 3103 
Q 1356 3103 1142 2972 
Q 928 2841 928 2578 
Q 928 2378 1081 2264 
Q 1234 2150 1697 2047 
L 1894 2003 
Q 2506 1872 2764 1633 
Q 3022 1394 3022 966 
Q 3022 478 2636 193 
Q 2250 -91 1575 -91 
Q 1294 -91 989 -36 
Q 684 19 347 128 
L 347 722 
Q 666 556 975 473 
Q 1284 391 1588 391 
Q 1994 391 2212 530 
Q 2431 669 2431 922 
Q 2431 1156 2273 1281 
Q 2116 1406 1581 1522 
L 1381 1569 
Q 847 1681 609 1914 
Q 372 2147 372 2553 
Q 372 3047 722 3315 
Q 1072 3584 1716 3584 
Q 2034 3584 2315 3537 
Q 2597 3491 2834 3397 
z
" transform="scale(0.015625)"/>
     </defs>
     <use xlink:href="#DejaVuSans-53"/>
     <use xlink:href="#DejaVuSans-65" transform="translate(63.476562 0)"/>
     <use xlink:href="#DejaVuSans-74" transform="translate(125 0)"/>
     <use xlink:href="#DejaVuSans-50" transform="translate(164.208984 0)"/>
     <use xlink:href="#DejaVuSans-6f" transform="translate(220.886719 0)"/>
     <use xlink:href="#DejaVuSans-69" transform="translate(282.068359 0)"/>
     <use xlink:href="#DejaVuSans-6e" transform="translate(309.851562 0)"/>
     <use xlink:href="#DejaVuSans-74" transform="translate(373.230469 0)"/>
     <use xlink:href="#DejaVuSans-73" transform="translate(412.439453 0)"/>
    </g>
   </g>
  </g>
 </g>
 <defs>
  <clipPath id="p431247e239">
   <rect x="7.2" y="20.798437" width="443.27499" height="443.52"/>
  </clipPath>
 </defs>
</svg>
